<svg xmlns="http://www.w3.org/2000/svg" baseProfile="full" version="1.1" viewBox="0 0 100 100"><style>.port{fill:#888}.p-terminal{fill:red}.p{stroke:red;stroke-width:4}.b-terminal{fill:#ff0}.b{stroke:#ff0;stroke-width:4}</style><rect width="100%" height="100%" fill="#111"/><circle cx="20" cy="20" r="6" class="port"/><circle cx="40" cy="20" r="6" class="port"/><circle cx="60" cy="20" r="6" class="port"/><circle cx="80" cy="20" r="6" class="port"/><circle cx="20" cy="40" r="6" class="port"/><circle cx="40" cy="40" r="6" class="port"/><circle cx="60" cy="40" r="6" class="port"/><circle cx="80" cy="40" r="6" class="port"/><circle cx="20" cy="60" r="6" class="port"/><circle cx="40" cy="60" r="6" class="port"/><circle cx="60" cy="60" r="6" class="port"/><circle cx="80" cy="60" r="6" class="port"/><circle cx="20" cy="80" r="6" class="port"/><circle cx="40" cy="80" r="6" class="port"/><circle cx="60" cy="80" r="6" class="port"/><circle cx="80" cy="80" r="6" class="port"/><rect width="8" height="8" x="16" y="36" class="p-terminal"/><line x1="20" x2="20" y1="40" y2="80" class="p"/><rect width="8" height="8" x="16" y="76" class="p-terminal"/><rect width="8" height="8" x="36" y="36" class="p-terminal"/><line x1="40" x2="40" y1="40" y2="60" class="p"/><rect width="8" height="8" x="36" y="56" class="p-terminal"/><rect width="8" height="8" x="56" y="16" class="b-terminal"/><line x1="60" x2="60" y1="20" y2="60" class="b"/><rect width="8" height="8" x="56" y="56" class="b-terminal"/><rect width="8" height="8" x="76" y="36" class="b-terminal"/><line x1="80" x2="80" y1="40" y2="60" class="b"/><rect width="8" height="8" x="76" y="56" class="b-terminal"/></svg>