<?xml version="1.0" standalone="no"?>
<!DOCTYPE svg PUBLIC "-//W3C//DTD SVG 1.1//EN" "http://www.w3.org/Graphics/SVG/1.1/DTD/svg11.dtd" >
<svg xmlns="http://www.w3.org/2000/svg">
<metadata></metadata>
<defs>
<font id="typewriter_condensedregular" horiz-adv-x="921" >
<font-face units-per-em="2048" ascent="1638" descent="-410" />
<missing-glyph horiz-adv-x="500" />
<glyph horiz-adv-x="0" />
<glyph horiz-adv-x="682" />
<glyph unicode=" " />
<glyph unicode="!" d="M336 115q0 -49 34.5 -84t82.5 -35q49 0 83.5 34.5t34.5 84.5q0 48 -34.5 82t-83.5 34q-47 0 -82 -34.5t-35 -81.5zM397 459q0 -23 17.5 -39.5t40.5 -16.5t40 16.5t17 39.5v968q0 24 -17 42t-40 18t-40.5 -18.5t-17.5 -41.5v-968z" />
<glyph unicode="&#x22;" d="M264 954q0 -23 17 -39t41 -16q23 0 40 16t17 39v275q0 25 -17 42t-40 17q-24 0 -41 -17t-17 -42v-275zM557 954q0 -23 17 -39t40 -16q24 0 41 16t17 39v275q0 25 -17 42t-41 17q-23 0 -40 -17t-17 -42v-275z" />
<glyph unicode="#" d="M49 465q0 -36 37 -39q20 -4 70 -4h24q13 0 45 8q-14 -65 -16 -76l-43 -252q-8 -39 -8 -61q0 -28 11 -40t36 -11q27 3 35 22q6 13 16 72q26 135 59 338h181q40 0 77 6q-1 -3 -4 -20.5t-4 -22.5q-5 -27 -6 -33q-2 -11 -19 -107t-24 -143q-6 -37 -6 -59q0 -53 45 -53 q24 0 34 18.5t21 75.5q7 49 26 164.5t28 173.5h116q70 0 70 39q0 45 -74 45h-45q-9 0 -30 -3.5t-31 -4.5l22 77q4 30 15.5 99.5t15.5 99.5h76q47 0 71 4q12 3 21.5 14t9.5 23q0 11 -10.5 22.5t-22.5 16.5q-24 4 -73 4h-23q-13 0 -45 -8q18 52 21 74l40 254q6 40 9 53l2 12 q-3 45 -45 45q-32 0 -41 -26q-9 -27 -17 -66q-54 -321 -57 -338h-178q-10 0 -24 -1t-32 -2.5t-28 -2.5q10 33 18 72q3 19 19.5 112.5t23.5 141.5q8 39 8 59q0 51 -40 51q-21 0 -36.5 -25t-23.5 -67q-7 -50 -27 -165.5t-28 -172.5h-84q-42 0 -70 -4q-11 -2 -20.5 -11.5 t-10.5 -23.5q-3 -33 33 -39q27 -6 74 -6h27q18 0 45 10q-1 -6 -5 -19.5t-6.5 -24.5t-3.5 -15q-4 -16 -4 -18l-35 -201h-81q-44 0 -68 -6q-33 -3 -33 -35zM326 498q0 4 1 15l1 11q9 30 12 51l33 199h180q35 0 78 6q0 -1 -1 -10t-1 -10q-7 -30 -15 -55q-4 -34 -15 -101.5 t-15 -97.5h-183q-10 0 -36.5 -3.5t-38.5 -4.5z" />
<glyph unicode="$" d="M86 133q0 -46 96 -100q119 -58 248 -66v-131q0 -55 45 -55q49 0 49 55v139q146 26 226.5 107.5t80.5 200.5q0 79 -40.5 140.5t-135.5 129.5q-30 20 -131 88l-6 545q115 -22 187 -68q45 -26 65 -26q12 0 22.5 14t10.5 31q0 42 -80.5 82t-198.5 61v125q0 53 -49 53 q-45 0 -45 -53v-125q-146 -25 -232.5 -109.5t-86.5 -203.5q0 -146 196 -291q15 -11 58.5 -41.5t64.5 -46.5l2 -522q-96 11 -176 55q-112 53 -135 53q-14 0 -24.5 -12t-10.5 -29zM205 979q0 153 229 203l-4 -252q0 -18 -2.5 -119.5t0.5 -105.5q-143 96 -182 151 q-41 57 -41 123zM516 68q4 57 6.5 217.5t-2.5 240.5l55 -39l19 -14q139 -121 139 -203q0 -77 -52.5 -126.5t-164.5 -75.5z" />
<glyph unicode="%" d="M10 940q0 -103 60.5 -172.5t150.5 -69.5q91 0 152 69.5t61 172.5q0 100 -61.5 170t-151.5 70t-150.5 -69.5t-60.5 -170.5zM88 940q0 65 36.5 105t96.5 40q57 0 93 -40.5t36 -104.5q0 -66 -36 -106.5t-93 -40.5q-60 0 -96.5 40.5t-36.5 106.5zM131 141q0 -47 39 -47 q22 0 35 23l586 987v-2q8 20 8 28q0 20 -13 35t-28 15q-21 0 -33 -27l-586 -985q-8 -16 -8 -27zM502 334q0 -102 62 -170t153 -68t150 67.5t59 170.5q0 102 -59.5 171.5t-149.5 69.5q-91 0 -153 -70t-62 -171zM582 334q0 66 37 105.5t98 39.5q55 0 93 -40t38 -105 q0 -64 -38 -106t-93 -42q-61 0 -98 41.5t-37 106.5z" />
<glyph unicode="&#x26;" d="M74 274q0 -106 76 -194q79 -82 178 -82q87 0 180 78q21 13 61 53q16 12 47 43q23 -53 25 -57l6 -15l-2 2q6 -10 22.5 -32.5t24.5 -36.5q22 -33 45 -33q43 0 43 41q0 20 -18 49q-59 95 -80 125l160 143q40 34 46.5 42.5t6.5 25.5t-12 30t-27 13q-21 0 -76 -43l-100 -84 l-23 -23q-2 -2 -14.5 -11.5t-13.5 -10.5q-16 33 -203 332l147 157q89 103 89 220q0 115 -76 194q-80 80 -187 80q-104 0 -186 -82q-76 -82 -76 -192q0 -86 70 -201l102 -162l-143 -162q-92 -106 -92 -207zM162 268q0 79 65 156v-2q52 60 60 70q45 40 69 79q1 -2 56 -90 l151 -239q-11 -14 -76 -70q-103 -80 -159 -80q-66 0 -116 53t-50 123zM223 1004q0 72 53 127t123 55t123 -55t53 -127q0 -81 -65 -146l-70 -76q-11 -12 -37.5 -36.5t-33.5 -32.5q-10 21 -20.5 37t-19.5 27t-12 16l-59 102q-35 65 -35 109z" />
<glyph unicode="'" d="M387 954q0 -23 17 -39t40 -16q24 0 41 16t17 39v275q0 25 -17 42t-41 17q-23 0 -40 -17t-17 -42v-275z" />
<glyph unicode="(" d="M213 711q0 -221 83.5 -430.5t260.5 -372.5q17 -14 39 -14q24 0 39 18q17 17 17 41t-19 39q-158 150 -232.5 335t-74.5 384q-1 246 103.5 466t252.5 318q20 12 24 36t-10 44q-12 20 -34.5 23.5t-45.5 -9.5l2 2q-179 -123 -291.5 -362.5t-113.5 -517.5z" />
<glyph unicode=")" d="M214 1538.5q5 -23.5 24 -35.5q149 -97 253 -318t103 -466q0 -196 -76 -383.5t-231 -335.5q-16 -18 -17.5 -42t15.5 -40h2q15 -18 39 -18q25 0 39 14q176 166 260 374.5t84 430.5q-1 278 -114 518.5t-294 361.5h2q-22 13 -45 7.5t-35 -25.5q-14 -19 -9 -42.5z" />
<glyph unicode="*" d="M106 1102q44 -18 145 -50t146 -51l-182 -307q51 -60 61 -73q28 52 91 161.5t88 155.5l188 -313q5 9 30.5 29t31.5 30q-26 47 -100 156.5t-101 160.5l311 105l-27 72q-195 -61 -288 -95v375h-78v-375l-289 99q-4 -16 -13 -36.5t-14 -43.5z" />
<glyph unicode="+" d="M80 717q0 -23 17 -40.5t40 -17.5h283v-297q0 -10 4 -18l20 -18q3 -7 19 -13h-2h4h12q13 0 31 9l6 6l6 6q4 4 8 12v6l4 4v4q0 1 1.5 5t1.5 6v288h260q23 0 39 17t16 41q0 23 -16 40t-39 17h-260v279l-7 24l-2 6v-2q-3 6 -12 15l-2 2q-4 0 -8 4q-11 0 -15 2q-10 0 -14 4h-4 q-17 -2 -29 -12l-10 -11q-4 -6 -6 -8l-4 -8q0 -1 -1 -3t-1 -3v-289h-283q-23 0 -40 -17t-17 -40zM504 1102l8 -2q-1 0 -3 1t-3 1h-2zM532 352l3 6l-3 -2v-4z" />
<glyph unicode="," d="M311 145q0 -60 42.5 -102.5t101.5 -42.5h47q-28 -153 -82 -246v2l-6 -16q-11 -18 -6.5 -40t24.5 -34h-2q20 -8 29 -8q31 0 51 33l-2 -2q100 183 102 377q0 51 -8 92l2 -2q-1 3 -5 17t-5 17q-9 42 -49 71.5t-90 29.5q-59 0 -101.5 -43t-42.5 -103z" />
<glyph unicode="-" d="M141 555q0 -18 12 -35.5t27 -17.5h561q14 0 25.5 17.5t11.5 35.5q0 15 -11.5 31t-25.5 16h-561q-14 0 -26.5 -16t-12.5 -31z" />
<glyph unicode="." d="M315 143q0 -60 42.5 -102.5t101.5 -42.5q60 0 102.5 42.5t42.5 102.5t-42.5 103t-102.5 43q-59 0 -101.5 -43t-42.5 -103z" />
<glyph unicode="/" d="M133 -111l4 5q-5 -18 6 -44l2 -2l2 -4l7 -4q17 -17 41 -14q19 0 32 10q16 8 23 41q6 20 48.5 153t115 358t127.5 400l237 750q9 23 -2 43.5t-33 26.5q-23 9 -44 -2t-29 -33h2q-133 -417 -266 -836q-139 -429 -183 -575q-22 -63 -61 -189q-2 -12 -21 -61q-1 -2 -1 -3.5 t-1 -4.5q0 -3 -6 -15z" />
<glyph unicode="0" d="M143 594q5 -206 47 -352q14 -50 36 -93.5t54.5 -83t80.5 -62.5t106 -23q179 5 258 262q49 167 49 356q2 23 2 68q0 230 -45 383q-29 104 -94.5 176t-171.5 75q-108 -3 -173.5 -79.5t-98.5 -190.5q-50 -172 -50 -395v-41zM248 600v35q0 222 45 364q59 200 172 197 q60 0 100 -43t66 -135q41 -132 41 -352q0 -50 -2 -68q-5 -206 -45 -326q-27 -94 -69 -142t-89 -46q-63 -1 -104.5 44.5t-71.5 143.5q-38 117 -43 328z" />
<glyph unicode="1" d="M207 941.5q-3 -22.5 12 -42.5q11 -18 35.5 -21t44.5 7q278 204 297 217l4 -1045q0 -25 16 -41t41 -16q23 0 40.5 17t17.5 42l-2 1155q-8 41 -33 52q-34 15 -59 -4l-390 -283q-21 -15 -24 -37.5z" />
<glyph unicode="2" d="M156 123q-1 -39 10.5 -68t23.5 -39q16 -16 39 -16l478 -2q59 8 59 57q0 24 -16.5 41t-40.5 17l-441 2q4 53 43 146.5t125 219.5v-2q12 18 27.5 38.5t27.5 34.5t32 37.5t30 35.5q94 98 150 186t63 193q-1 33 -10.5 68t-31 73t-51.5 68t-77.5 50t-103.5 21q-1 0 -7 -1 t-12 -1q-68 -9 -125 -39.5t-89 -66.5t-54.5 -74t-30.5 -60.5t-8 -27.5q-5 -20 9.5 -40t37.5 -26q22 2 41.5 15t26.5 36q3 14 8 28t20 41t35 46.5t56 35.5t81 17h11q42 0 74 -16.5t49.5 -42.5t26 -53t9.5 -54v-10q0 -36 -29 -88t-59.5 -90.5t-91.5 -110.5v3 q-12 -14 -59.5 -71.5t-71.5 -88.5q-184 -273 -184 -422z" />
<glyph unicode="3" d="M154 -137q6 -19 21 -30t32 -11h12q2 0 4 1t4 1q1 0 3 1t3 1q23 7 51 18t81 38t100.5 58.5t102 82t95.5 108t71 137.5t36 168v19q3 198 -108 288q-58 53 -179 68q10 14 41 58t41 59q3 2 8.5 9.5t6.5 8.5q66 96 96 144q5 8 12.5 20.5t9.5 15.5q33 48 39 93q0 14 -6 24 q-7 16 -23.5 26.5t-29.5 10.5q-39 6 -199 6l-237 -2q-23 -3 -40.5 -19.5t-17.5 -39.5q0 -21 19 -38.5t41 -19.5q14 0 100 1t135 1h113q-17 -24 -66 -97t-67 -99l-146 -195q-10 -13 -10.5 -33.5t8.5 -33.5q27 -38 64 -23q41 10 84 10q3 0 9 -1t9 -1q33 -3 52 -7t45 -18 t40.5 -38t27 -69t15.5 -109v-19q0 -69 -23 -133t-57.5 -110.5t-82.5 -89t-90.5 -69t-89 -49.5t-71.5 -32.5t-44 -15.5h2l-11 -5q-20 -6 -31 -27.5t-5 -43.5v2z" />
<glyph unicode="4" d="M172 434q0 -8 2 -12q3 -18 18 -30.5t33 -12.5h310v-359q0 -22 15 -36.5t38 -14.5q22 0 36.5 14.5t14.5 36.5v359h57q23 0 38.5 15.5t15.5 37.5t-15.5 37.5t-38.5 15.5h-57v205q0 22 -14.5 36.5t-36.5 14.5q-23 0 -38 -14.5t-15 -36.5v-205h-252q21 168 77 336 q50 160 50 428v27q0 22 -15 37.5t-37 15.5q-23 -3 -38 -18t-15 -37v-25q0 -260 -45 -393q-88 -264 -88 -422z" />
<glyph unicode="5" d="M150 696q0 -4 2 -6q4 -16 15 -28.5t21 -14.5v-2l4 -1q4 -1 7 -1h20q2 0 3 1t3 1q20 5 29 8l-2 -2q45 15 47 15q78 20 150 20q93 -12 122 -25q61 -28 79 -122q7 -36 9 -86v-9q-1 -102 -65.5 -200t-161.5 -176q-94 -77 -213 -138l-18 -8q-23 -9 -32 -32t1 -46 q14 -34 53 -34q7 0 23 4l22 12h-2q28 13 69.5 38.5t99.5 66.5t114 96.5t106 119t82.5 143t36.5 159.5q-3 196 -106 280q-87 70 -222 70q-75 0 -180 -25q0 23 1 97t1 106q0 149 2 194l447 -2q24 0 39.5 17t17.5 41q0 25 -16 41t-39 16l-504 4q-26 0 -41.5 -16t-17.5 -41v-260 q-2 -66 -2 -183q0 -7 -1 -19.5t-1 -18.5v-35q0 -1 -1 -8t-1 -11z" />
<glyph unicode="6" d="M160 500q0 -37 4 -123q6 -180 90.5 -284.5t196.5 -106.5h10q72 2 127.5 30.5t87 69t52 95t27 100.5t7.5 92q0 261 -119 370q-76 66 -180 66q-89 -7 -191 -76q45 274 158 430q21 29 45 53t39.5 35t40.5 27t31 20q21 6 29.5 23.5t2.5 38.5t-24 30.5t-39 2.5 q-8 -1 -29.5 -11t-59.5 -38t-77.5 -70t-81.5 -113.5t-74.5 -160t-53 -219t-19.5 -281.5zM264 477q4 12 4 47q0 53 25.5 96t58.5 64q61 33 115 31q8 -4 22 -4q23 -2 39 -7t40.5 -25.5t40.5 -54t30 -98t18 -153.5q0 -117 -45 -191q-29 -47 -61 -69t-90 -23h-10 q-21 1 -41.5 8.5t-44.5 27t-43 50.5t-34 84.5t-20 122.5v2q0 8 -1 23t-1 22q0 31 -2 47z" />
<glyph unicode="7" d="M152 1022q-3 -23 10 -43t35 -23q24 -3 43 11.5t22 38.5l25 165l370 -2q0 -232 -129 -442q-61 -99 -103 -203t-61 -194.5t-26.5 -157t-7.5 -127.5q0 -64 4 -92q0 -20 14.5 -36t42.5 -17h10q21 3 34.5 21.5t13.5 39.5q0 2 -1.5 13.5t-2.5 30.5t-1 40q0 54 6.5 114.5t24 143 t55.5 178t93 185.5q147 239 147 483q0 38 -6 92q-5 20 -20 32.5t-37 12.5h-471q-23 0 -39 -13.5t-19 -35.5q-4 -36 -13 -107.5t-13 -107.5z" />
<glyph unicode="8" d="M137 369q0 -5 2 -17v-4q2 -62 22 -124t57.5 -115.5t98.5 -88t136 -36.5h12q72 2 129.5 28t92 64.5t56.5 88.5t30 96.5t7 90.5v10q0 105 -40.5 199.5t-121.5 143.5q62 54 93.5 122.5t31.5 133.5q0 41 -7.5 83.5t-27 88.5t-49 82t-78 59.5t-108.5 25.5l-8 -2 q-63 -4 -113 -30.5t-77.5 -61.5t-45.5 -78.5t-24 -76.5t-6 -60q0 -65 26.5 -145t91.5 -141q-87 -58 -133.5 -148.5t-46.5 -187.5zM242 358v11q1 73 28 136.5t81.5 102.5t123.5 33q90 -2 147.5 -77.5t53.5 -201.5v-12q2 -44 -8 -87t-33 -82t-67.5 -64.5t-104.5 -28.5h-10 q-87 -3 -146.5 78t-64.5 192zM305 991q2 30 9.5 60.5t25 65t52.5 56t83 21.5q44 0 72 -17.5t55 -56.5q35 -62 35 -159q-8 -192 -172 -197q-35 -1 -61 11.5t-36.5 24.5t-25.5 36q-3 4 -4 6q-33 62 -33 149z" />
<glyph unicode="9" d="M147 848q1 -36 6.5 -74t17.5 -87t35 -92.5t54 -82t79 -64.5t107 -32h9q87 3 192 71q-11 -92 -26 -164t-37.5 -125.5t-41.5 -89.5t-52 -69.5t-54 -50.5t-61 -47q-6 -4 -19.5 -13.5t-19.5 -13.5q-20 -12 -23 -37t11 -43q18 -24 49 -24q18 0 22 4q45 30 76.5 54t75 67 t73 88.5t62 114.5t51.5 148.5t31 188.5t10 236q0 30 -4 170q-4 206 -86.5 304.5t-216.5 100.5l-12 -2q-73 -3 -130 -35t-90 -77.5t-54 -105.5t-28 -112.5t-6 -105.5zM262 848q-4 138 43 219q35 51 71.5 76t104.5 26q32 -4 57.5 -17t53 -43t44 -90t19.5 -147l4 -163 q0 -25 -2 -41q0 -8 -1 -24t-1 -17q-24 -21 -57 -54q-31 -27 -64 -35t-85 -10q-49 1 -82 27.5t-60 81.5q-23 48 -35 107.5t-10 103.5z" />
<glyph unicode=":" d="M315 201q0 -60 42.5 -103t101.5 -43q60 0 102.5 43t42.5 103t-42.5 102.5t-102.5 42.5q-59 0 -101.5 -42.5t-42.5 -102.5zM315 715q0 -60 42.5 -103t101.5 -43q60 0 102.5 43t42.5 103t-42.5 102.5t-102.5 42.5q-59 0 -101.5 -42.5t-42.5 -102.5z" />
<glyph unicode=";" d="M311 145q0 -60 42.5 -102.5t101.5 -42.5h47q-28 -153 -82 -246v2l-6 -16q-11 -18 -6.5 -40t24.5 -34h-2q20 -8 29 -8q31 0 51 33l-2 -2q100 183 102 377q0 51 -8 92l-8 32q-9 42 -49 71.5t-90 29.5q-59 0 -101.5 -43t-42.5 -103zM315 659q0 -60 42.5 -102.5t101.5 -42.5 q60 0 102.5 42.5t42.5 102.5t-42.5 103t-102.5 43q-59 0 -101.5 -43t-42.5 -103z" />
<glyph unicode="&#x3c;" d="M174 631q0 -50 19 -66q17 -24 57 -49l319 -203v2q59 -36 86 -36q21 0 35.5 11.5t14.5 28.5q0 27 -27 48l-49 29q-2 2 -4 3l-209 127q-12 5 -45 25h2q-20 11 -79 45l-58 35l180 98l209 129q19 11 43 25l10 6q27 24 27 45q0 19 -15 32t-35 13q-19 0 -86 -41v2 q-53 -33 -159.5 -100.5t-159.5 -100.5q-34 -19 -60 -45q-16 -26 -16 -63z" />
<glyph unicode="=" d="M129 526q0 -23 17.5 -39t41.5 -16h545q24 0 41 16t17 39q0 24 -17 41t-41 17h-545q-24 0 -41.5 -17t-17.5 -41zM129 848q0 -24 17.5 -40.5t41.5 -16.5h545q24 0 41 16.5t17 40.5q0 23 -17.5 40t-40.5 17h-545q-23 0 -41 -17t-18 -40z" />
<glyph unicode="&#x3e;" d="M172 319q0 27 27 48l49 29q2 2 4 3q40 23 116.5 70t92.5 57q2 1 9 5.5t19.5 12.5t31 19t48.5 29t66 39q-87 47 -174 98l-209 129q-19 11 -43 25l-10 6q-27 24 -27 45q0 19 14.5 32t34.5 13q19 0 86 -41v2q52 -33 160 -100.5t160 -100.5q36 -22 59 -45q16 -26 16 -63 q0 -51 -18 -66q-17 -24 -57 -49l-320 -203v2q-59 -36 -86 -36q-20 0 -34.5 11.5t-14.5 28.5z" />
<glyph unicode="?" d="M168 1155q0 -18 10 -31.5t25 -13.5t67 23h-2q107 55 189 55q94 0 155.5 -49t61.5 -127q0 -79 -96 -154q-119 -85 -134 -119q-22 -49 -22 -125v-174q0 -51 45 -51t45 51v172q0 87 53 125l37 27q1 1 14 10t30.5 22t29.5 23q86 80 86 193q0 119 -84 194.5t-217 75.5 q-114 0 -234 -63q-59 -26 -59 -64zM336 115q0 -49 34.5 -84t82.5 -35q49 0 82.5 34.5t33.5 84.5q0 48 -33.5 82t-82.5 34q-47 0 -82 -34.5t-35 -81.5z" />
<glyph unicode="@" d="M8 543q0 -226 135 -379q136 -154 334 -154q121 0 219 31q99 34 99 72q0 24 -25 24q-22 0 -59 -16q-10 -3 -26 -8t-21 -7l-17 -4q-102 -24 -166 -24q-175 0 -291 131t-116 332q0 196 119 327q121 136 286 136q164 0 269 -111q106 -106 106 -279q0 -122 -47 -211 q-46 -88 -113 -88q-26 0 -42 21.5t-15 56.5q4 46 6 64l41 233q2 12 6.5 29.5t6.5 28t1.5 21t-8 14.5t-22.5 3q-28 -3 -39 -75q-51 99 -158 96q-101 -3 -170 -92q-68 -89 -68 -223q0 -108 54.5 -178t134.5 -70q56 0 95.5 24.5t70.5 83.5v2q0 -106 102 -106q88 0 158 110 t70 254q0 202 -125 330q-123 129 -316 129q-196 0 -334 -153q-135 -153 -135 -375zM305 498q0 97 50 167t122 70q56 0 88.5 -43.5t32.5 -118.5q0 -110 -47.5 -184t-116.5 -74q-57 0 -93 51.5t-36 131.5z" />
<glyph unicode="A" d="M147 63q-2 -9 -2 -16q-1 -15 7 -27q12 -18 34 -22q25 -5 45 6.5t23 34.5l49 266h309l56 -264q3 -21 18 -33t37 -12q6 0 10 2q21 3 33 23q10 16 11 34q0 4 -1 8q-38 186 -120.5 590t-120.5 590q-3 21 -18 35t-36 16h-53h-3q-19 0 -33 -13q-16 -14 -21 -36zM326 418 l129 733l135 -733h-264z" />
<glyph unicode="B" d="M197 57q0 -26 18 -39v-2q16 -16 39 -16q111 0 152 2q34 0 73 10.5t83 37.5t79 66t58 102q22 60 22 134v6v9q1 105 -42 187t-110 136q121 109 121 262q0 38 -2 58q-10 67 -43 120t-78.5 83t-92.5 45.5t-91 15.5h-129q-22 0 -39 -17q-18 -18 -18 -40v-1160zM311 117v514 l66 2q12 -4 18 -4q52 -2 107 -39q30 -22 49.5 -43.5t36.5 -70t18 -116.5q-3 -73 -20.5 -121.5t-54 -72t-57.5 -30.5t-66 -15q-6 -1 -9 -2q-12 -2 -88 -2zM311 745v414h72q55 0 120 -46t72 -116q3 -18 3 -45q0 -107 -74 -168q-20 -14 -31 -20t-55 -14q-32 -6 -74 -6 q-16 0 -33 1z" />
<glyph unicode="C" d="M147 618q11 -376 117 -534q73 -97 203 -104h22q61 5 112 32.5t81 62.5t51 72t29 59.5t8 26.5q2 10 2 20q0 15 -5 27q-9 22 -28 25q-27 9 -50.5 -4.5t-29.5 -38.5q-2 -8 -6.5 -20.5t-21 -44t-36 -55t-52.5 -41.5q-28 -15 -60 -15h-10q-4 2 -12 2q-59 14 -103 68 q-35 46 -65.5 168t-34.5 297q-2 18 -2 57q3 96 11 172t19 127t29 89t33 58.5t39.5 35.5t40.5 20.5t43 11.5h23q50 0 104 -39q23 -23 35 -47l-2 2l10 -10q10 -23 30 -30.5t42 3.5q20 10 27.5 34.5t-1.5 43.5q-3 7 -10.5 20t-28 36.5t-46 43.5t-67.5 35t-89 16q-23 0 -39 -2 q-51 -4 -96 -27t-87.5 -74t-71.5 -126.5t-45 -191.5q-13 -93 -13 -204q0 -28 1 -57z" />
<glyph unicode="D" d="M188 61q0 -21 14.5 -36.5t35.5 -18.5l4 -2q4 -4 67 -4q188 0 295 121q107 131 123 377q4 45 4 127q0 84 -8 202q-17 220 -121 324q-66 73 -158 105t-159 32q-13 0 -27.5 -1t-17.5 -1q-22 -3 -37 -19t-15 -38v-1168zM305 117v1057q59 -6 119 -33t94 -66h-2q77 -82 92 -252 q8 -114 8 -198q0 -27 -4 -121q-9 -209 -94 -309q-34 -39 -98 -61q-52 -18 -96 -18q-10 0 -19 1z" />
<glyph unicode="E" d="M233 55q0 -23 16 -39t38 -16l413 -2q22 0 38.5 15t17.5 38q0 23 -17.5 38t-40.5 17q-57 0 -178.5 2t-175.5 3v510h213q22 0 38.5 15t16.5 36q0 24 -15.5 39.5t-37.5 17.5h-215v445l352 -3q22 0 39 16t17 38q0 25 -16 42t-38 17l-409 2q-23 0 -39 -16q-17 -14 -17 -41 v-1174z" />
<glyph unicode="F" d="M193 61q0 -27 17.5 -45t41.5 -18q26 0 42.5 17.5t16.5 45.5v539h209q30 0 46 17.5t16 41.5q0 26 -18 45t-42 19h-211v438l359 2q25 0 42 19t17 45q0 25 -18 43q-17 17 -40 16h-3l-416 -2q-24 0 -41.5 -17.5t-17.5 -43.5v-1162z" />
<glyph unicode="G" d="M162 614q0 -298 74 -452q35 -73 98.5 -116.5t134.5 -43.5h14q75 0 152 51q26 -51 63 -51q25 0 41.5 16t16.5 41l4 535q0 26 -17 43.5t-43 17.5h-186q-26 0 -41.5 -16t-17.5 -41q0 -23 16 -39t41 -16h127q8 -58 8 -168v-20q0 -111 -31 -173q-12 -22 -28 -36t-37 -19.5 t-35 -6.5t-37 -1h-8q-192 0 -197 495v15q1 123 17.5 220.5t39.5 154t52.5 94t54.5 50.5t47 13h15q50 -1 72.5 -13t39.5 -34l-2 2q10 -15 21 -41q3 -23 24 -38t43 -15q23 6 38 26t12 42q0 5 -5.5 22.5t-23 46.5t-43.5 54t-74 44t-108 19h-17q-145 -12 -229.5 -177t-85.5 -468 v-17z" />
<glyph unicode="H" d="M188 55q0 -26 18.5 -43.5t43.5 -17.5t42 17.5t17 43.5v570h299v-570q0 -26 17 -43.5t43 -17.5q25 0 42 17.5t17 43.5l4 1174q0 26 -18 43.5t-43 17.5t-42.5 -17.5t-17.5 -43.5l-2 -504h-299v504q0 26 -17 43.5t-42 17.5t-43.5 -17.5t-18.5 -43.5v-1174z" />
<glyph unicode="I" d="M209 53q0 -24 15.5 -37.5t39.5 -13.5h389q25 0 42.5 13.5t17.5 37.5q0 21 -18 36t-42 15h-137l2 1078h137q24 0 41 15t17 38q0 22 -17 35.5t-41 13.5h-391q-24 0 -39.5 -13t-15.5 -36t16 -38t39 -15h139l-4 -1078h-135q-23 0 -39 -14.5t-16 -36.5z" />
<glyph unicode="J" d="M158 264q0 -4 2.5 -17.5t10.5 -39.5t21 -54t36.5 -58t54 -53.5t77 -38.5t101.5 -15q75 0 132.5 22t89 54t51.5 73.5t26 74t6 62.5v951q0 28 -17.5 46.5t-43.5 18.5q-25 0 -42.5 -18.5t-17.5 -46.5v-953q-1 -18 -4 -35t-14 -43.5t-29.5 -45.5t-53.5 -34t-81 -16h-4 q-97 0 -154 101q-10 16 -17.5 36t-9.5 32l-2 12q-3 27 -22.5 43.5t-46.5 13.5q-23 -3 -37 -24q-13 -18 -13 -39q0 -5 1 -9z" />
<glyph unicode="K" d="M186 59q0 -26 18 -43.5t42 -17.5t41.5 17.5t17.5 43.5v471q4 6 13 22.5t22 38t31 48.5l243 -610q7 -15 24.5 -26t31.5 -11q12 0 24 4q24 8 34 32q5 13 5 26q0 11 -4 22q-199 464 -280 663q40 71 112 202.5t92 168.5l43 80q14 24 7.5 49.5t-27.5 36.5q-22 12 -46 5 t-34 -30l-291 -536v512q0 26 -17.5 43.5t-41.5 17.5t-42 -17.5t-18 -43.5v-1168z" />
<glyph unicode="L" d="M193 59q0 -26 20 -43h-2q16 -16 41 -16h416q25 0 43 17t18 42t-18.5 44.5t-42.5 19.5h-357v1108q0 25 -16.5 42t-42.5 17q-24 0 -41.5 -17.5t-17.5 -41.5v-1172z" />
<glyph unicode="M" d="M78 62q0 -28 14 -44q15 -18 39 -20q24 0 39.5 18t17.5 45q3 112 10 480.5t13 521.5l195 -604h-3q4 -17 20 -28t34 -11q42 0 55 37l217 606l2 -1004q2 -28 18 -45.5t42 -17.5q23 0 39 18.5t16 46.5l-19 1164q0 27 -16 45t-41 18h-39q-39 0 -51 -41l-221 -624l-201 626h2 q-4 19 -19 30t-34 11h-37q-26 0 -41.5 -17t-17.5 -44q-5 -193 -17 -581q-16 -560 -16 -586z" />
<glyph unicode="N" d="M172 55q0 -23 14.5 -38t36.5 -15t37.5 15t15.5 38l5 940l346 -960q11 -30 41 -33l18 -2q4 -2 8 -2q21 0 35 14q19 15 19 39l-5 1170q0 22 -15 37.5t-38 15.5q-22 0 -37.5 -15.5t-15.5 -37.5l4 -932l-346 954v-2q-7 19 -23 29q-13 7 -25 7q-4 0 -9 -1l-23 -2 q-16 -6 -28.5 -21.5t-12.5 -31.5z" />
<glyph unicode="O" d="M133 627q0 -295 81.5 -462.5t238.5 -182.5h12q86 0 151 54.5t101 141.5q71 170 71 436v9q-3 89 -10 165.5t-21.5 157t-39.5 142.5t-59 112q-36 48 -86 74q-47 24 -104 24h-9q-1 0 -2 0.5t-3 0.5t-5 -1q-88 -4 -152.5 -62.5t-97.5 -148.5q-66 -172 -66 -442v-18zM254 631 v20q0 259 53 391q32 73 68.5 104.5t87.5 33.5h3q48 0 84 -34q36 -35 66 -112q54 -129 54 -405v-15q0 -253 -62 -383q-33 -71 -66 -99t-77 -28h-10q-28 0 -54 14t-53 50.5t-46.5 94t-32.5 152t-15 216.5z" />
<glyph unicode="P" d="M190 55q0 -26 18 -43.5t42 -17.5q26 0 42.5 17.5t16.5 43.5l2 455q148 0 250 61q73 41 121 129q47 86 47 210v5q-2 92 -35 162.5t-79.5 109t-106.5 62.5t-106 31q-40 6 -77 6h-10q-23 0 -47.5 -2t-27.5 -2q-24 -4 -37 -21t-13 -40v-1166zM309 623v544q47 -2 82.5 -7.5 t79 -22.5t72 -44t48.5 -75.5t21 -114.5q0 -42 -8.5 -78t-20 -62t-32.5 -47.5t-38.5 -35t-45 -24.5t-44 -16t-44.5 -9.5t-38 -5t-32 -2.5z" />
<glyph unicode="Q" d="M127 625q0 -289 82.5 -453.5t241.5 -179.5h12q-11 0 4 2q5 1 19 2t18 2h-2q16 4 37 4q1 -2 7 -12.5t7 -12.5q6 -9 11 -15t12.5 -14t12 -12t18.5 -16.5t22 -19.5h-2q27 -21 47 -21q27 0 45 33v-2q3 9 3 18q0 37 -46 76q-1 1 -20.5 18.5t-28.5 32.5q52 50 92 131 q74 175 74 430v9q-1 95 -7.5 175.5t-21 159t-40.5 137.5t-62.5 105t-89.5 69q-50 21 -110 21h-11q-89 -4 -154.5 -61.5t-99.5 -147.5q-70 -176 -70 -432v-26zM248 631v20q0 245 63 387q29 70 63 100.5t85 35.5h9q43 0 80 -34q41 -38 68 -108q54 -118 54 -401v-15v-19 q0 -210 -64 -361q-1 -3 -4.5 -10t-10.5 -24.5t-18 -45.5l-38 98q-6 23 -29 34t-47 3t-36 -31.5t-3 -46.5l10 -12q22 -44 49 -88q-103 11 -165.5 134.5t-65.5 383.5z" />
<glyph unicode="R" d="M197 47q0 -24 16.5 -40.5t38.5 -16.5q23 0 39 16t16 41v490q47 0 109 12l192 -529q9 -30 51 -30h13q24 9 36.5 33.5t4.5 46.5v-2q-31 80 -100 250.5t-101 250.5l41 21h-2q75 44 123 132q47 87 47 211v5q-2 86 -32 152.5t-73 103.5t-98 59.5t-100 28.5q-39 6 -75 7 q-6 0 -11 -1q-42 0 -90 -6q-19 -3 -32 -20t-13 -37v-1178zM307 643l4 537q14 1 27 1q29 1 56 -3q39 -4 79 -20.5t69 -44t48 -75t20 -110.5q0 -72 -21.5 -125.5t-51 -82t-75 -46.5t-79 -23.5t-76.5 -7.5z" />
<glyph unicode="S" d="M179 217q-2 -9 -2 -18q0 -14 5 -27q45 -70 116 -122t163 -56h17q50 0 84 15q40 18 93 61q45 44 67.5 103t22.5 118q0 31 -4 51q-12 53 -40.5 108t-53 88.5t-65.5 84.5q-46 51 -52 61q-26 34 -49 59q-40 50 -61 79t-50.5 75t-41.5 86q-10 32 -10 61q0 7 1 15 q16 118 142 123q30 0 52.5 -9t40 -30.5t27 -39t25.5 -52.5q9 -23 31.5 -32.5t44.5 1.5q22 9 30.5 31.5t-1.5 44.5q-9 23 -20 44.5t-33 50.5t-48 49.5t-65 35t-84 14.5h-6q-102 0 -175 -65q-75 -67 -75 -178q0 -45 13.5 -91.5t27 -77.5t46.5 -77.5t46 -62.5t51 -62 q36 -45 49 -58q117 -144 151 -200q35 -59 40 -99v-10q0 -1 1 -7t1 -11q0 -36 -16 -78t-35 -57q-64 -50 -119 -50h-2q-49 0 -101 38q-54 40 -79 85q-10 21 -33 27t-43 -6q-18 -10 -24 -33z" />
<glyph unicode="T" d="M172 1223q0 -25 18.5 -43.5t45.5 -18.5l163 -2v-1100q0 -27 19 -45t45 -18q28 0 45.5 17.5t17.5 45.5v1098h158q27 0 46.5 19.5t19.5 44.5q0 29 -18 46t-46 19q-75 0 -224 1t-224 1q-28 0 -45.5 -17.5t-20.5 -47.5z" />
<glyph unicode="U" d="M193 297q0 -61 10.5 -110t37 -96t80.5 -75t132 -32h18h10q63 0 111 24q52 26 80 69t41.5 90t13.5 97q0 3 1 8t1 7v946q0 26 -19 43.5t-44 17.5t-42.5 -17.5t-17.5 -43.5v-961q0 -2 -1 -8t-1 -10q-2 -23 -4 -39t-11.5 -39.5t-24 -37.5t-42.5 -25t-67 -11q-37 0 -64.5 14.5 t-41.5 33t-23 49t-11 47.5t-4 43v944q0 26 -16.5 43.5t-42.5 17.5q-24 0 -41.5 -17.5t-17.5 -43.5v-928z" />
<glyph unicode="V" d="M143 1208q38 -186 122 -585t122 -584q6 -20 22 -33.5t35 -13.5h39q19 0 35.5 13.5t22.5 33.5l233 1169q2 8 2 16q0 15 -8 29q-14 22 -37 27q-6 1 -11 1q-18 0 -34 -11q-20 -14 -24 -39l-197 -1030l-207 1030q-5 25 -25 39q-16 11 -34 11q-5 0 -11 -1q-20 -6 -34 -28 q-11 -18 -12 -36q0 -4 1 -8z" />
<glyph unicode="W" d="M76 1223l160 -1184q3 -22 18 -35.5t35 -13.5h14q14 0 27.5 12t19.5 29l115 489l110 -487q6 -16 21 -28.5t29 -12.5h10q21 0 35.5 13.5t17.5 35.5q91 666 158 1182q1 4 1 9q0 18 -11 34q-13 20 -35 22q-4 1 -7 1q-17 0 -31 -12q-17 -14 -20 -36l-125 -952l-100 446v-2 q-12 45 -51 45q-15 0 -30 -12.5t-21 -30.5l-109 -448l-129 954q-6 23 -22 37q-14 11 -31 11q-4 0 -8 -1q-20 -2 -32 -22q-10 -16 -10 -34q0 -4 1 -9z" />
<glyph unicode="X" d="M152 70q-2 -8 -2 -16q0 -13 6 -26q10 -21 30 -28q9 -3 18 -3q12 0 26 6q22 10 34 30q23 57 185 471l161 -469v4q9 -22 32 -31.5t48 -1.5q23 6 34 27t3 43v-2q-36 93 -109.5 284.5t-109.5 284.5l242 578q3 8 3 17q1 10 -5 22q-10 20 -33 28q-9 3 -18 3q-14 -1 -27 -7 q-22 -10 -33 -31q-113 -285 -180 -454l-166 452v-2q-9 23 -32 32t-48 1q-23 -6 -30 -34t7 -60l205 -543z" />
<glyph unicode="Y" d="M170 1200q36 -107 109.5 -324.5t109.5 -324.5v-496q0 -27 17.5 -45t42.5 -18t42 18t17 45v494l242 655q2 9 2 18q0 15 -6 32q-11 25 -33 34q-10 4 -20 4q-12 0 -25 -7q-22 -12 -33 -38l2 2q-30 -95 -100.5 -307t-81.5 -246l-170 549l2 -2q-10 26 -33 37.5t-49 3.5 q-22 -8 -32 -32q-5 -13 -5 -27q0 -12 4 -25h-2z" />
<glyph unicode="Z" d="M201 82q-3 -10 -3 -19q0 -19 13 -36q20 -27 47 -27h404q24 0 41.5 17.5t17.5 43.5q0 23 -18 41.5t-41 18.5h-320l379 1077q4 10 4 19q0 18 -14 34q-15 27 -47 27h-363q-24 0 -40.5 -17.5t-16.5 -41.5q0 -25 16.5 -43.5t40.5 -18.5h281z" />
<glyph unicode="[" d="M377 -276q0 -71 22.5 -99t83.5 -28h115q68 0 68 61t-68 61h-39q-22 0 -78 -16q19 56 19 84v1614q0 28 -19 86q67 -19 78 -19h39q68 0 68 62q0 61 -68 61h-115q-61 0 -83.5 -27.5t-22.5 -99.5v-1740z" />
<glyph unicode="\" d="M137 1538q-9 23 2 43.5t35 26.5q21 9 43 -6t31 -43q4 0 264 -822q128 -393 182 -575q32 -91 62 -189q1 -4 20 -61v-2l12 -27l-8 13q6 -25 -2 -37q-8 -4 -8 -13l2 2l-2 -4l-6 -4q-12 -12 -37 -16q-25 3 -37 12q-14 7 -22 41q-6 20 -48.5 153t-115 358t-127.5 400z M766 -166l4 10v-4q0 -1 -2 -3t-2 -3z" />
<glyph unicode="]" d="M375 -342q0 61 67 61h39q22 0 78 -16q-18 53 -18 84v1614q0 31 18 86q-66 -19 -78 -19h-39q-67 0 -67 62q0 61 67 61h115q61 0 84 -27.5t23 -99.5v-1740q0 -71 -23 -99t-84 -28h-115q-67 0 -67 61z" />
<glyph unicode="^" d="M115 950q0 -20 12 -33.5t31 -13.5q20 0 45 25q15 22 33 55q65 107 129 209q4 5 11 19.5t11 19.5q9 17 38.5 64.5t37.5 64.5l102 -168l129 -209q26 -48 33 -55q22 -25 43 -25q20 0 32.5 13.5t12.5 33.5q0 24 -41 86h2q-172 276 -198 320q-23 36 -48 61q-26 15 -63 15 q-49 0 -66 -17q-16 -12 -49 -59l-200 -320h2q-39 -59 -39 -86z" />
<glyph unicode="_" d="M0 -322q0 -24 16.5 -40.5t40.5 -16.5h809q24 0 40 16.5t16 40.5q0 23 -16.5 39.5t-39.5 16.5h-809q-23 0 -40 -16.5t-17 -39.5z" />
<glyph unicode="`" d="M301 1473q205 -209 270 -273q3 7 19.5 39t25.5 49l-258 279q-7 -11 -18.5 -30t-21 -34t-17.5 -30z" />
<glyph unicode="a" d="M188 236q0 -126 84 -193q68 -55 162 -55h27q66 10 151 57q7 -29 24.5 -45t37.5 -16q26 2 42 13.5t15 33.5l-2 657q0 72 -41 129q-29 40 -84.5 64t-126.5 24q-47 -1 -89.5 -14t-69 -30.5t-47.5 -38t-29 -31.5t-11 -17q-11 -22 -4 -45t27 -33q22 -12 44.5 -5.5t33.5 26.5 q10 21 33 35q45 39 112 39q45 -1 74 -9t41 -22.5t15.5 -25t4.5 -27.5v-146q-2 -4 -2 -24q-18 -7 -71 -15q-112 -15 -155 -28q-188 -58 -196 -248v-10zM305 242q3 75 42.5 115t125.5 55q13 2 35 6.5t42.5 6.5t63.5 3v-238q-15 -26 -36 -47q-36 -36 -111 -43q-3 0 -10.5 -1 t-10.5 -1h-16q-29 4 -46 9t-37.5 19t-30.5 43t-11 73z" />
<glyph unicode="b" d="M143 1163l2 -1104q0 -28 16.5 -45.5t41.5 -17.5q38 0 61 51q96 -59 195 -59q25 0 41 2h-4q73 11 127 48t82 81t45 103.5t21 100t5 85.5v30q0 174 -43 295q-33 73 -109 120q-66 41 -152 41q-13 0 -26 -1q-51 -3 -92.5 -21.5t-95.5 -54.5v346q0 27 -15.5 45.5t-41.5 18.5 t-42 -18.5t-16 -45.5zM260 680q32 39 80 67q47 27 102 27h4q53 -2 92 -19.5t62 -45.5t37 -72.5t19 -90t6 -106.5q-1 -44 -5.5 -83.5t-18 -85t-35 -78.5t-58.5 -55.5t-86 -24.5h-10q-39 -1 -71 7q-36 8 -53.5 18.5t-39.5 27.5l-23 27q-2 93 -2 487z" />
<glyph unicode="c" d="M168 461q0 -176 49 -291q29 -76 94.5 -128t157.5 -52q71 1 126 27t83 60t46.5 72.5t23 59.5t4.5 27q1 4 1 8q-1 19 -13 34q-14 18 -38 21q-23 3 -40.5 -11.5t-22.5 -39.5q0 -3 -4 -15l2 5q-3 -18 -10.5 -35.5t-25 -43.5t-51.5 -41q-32 -14 -75 -14h-6q-57 1 -87.5 25.5 t-59.5 85.5q-39 91 -39 246q0 129 34 209q30 61 61 87t91 27q50 0 77 -14t48 -41v2q15 -18 31 -67q3 -17 22.5 -26.5t42.5 -4.5q23 6 35 25t8 42q0 5 -6 24t-24.5 49.5t-46 58t-77 48t-110.5 21.5h-10q-91 -4 -154.5 -57.5t-93.5 -128.5q-43 -115 -43 -254z" />
<glyph unicode="d" d="M144 404v-15q0 -24 4 -55q6 -41 14 -85t29 -88.5t48.5 -81t73.5 -62.5t103 -33q18 -2 43 -2q96 0 186 57q29 -51 57 -51q27 0 42.5 17.5t15.5 45.5l2 1118q0 28 -14 46t-39 18t-40.5 -18.5t-15.5 -45.5l-2 -346q-106 76 -184 76h-5q-66 1 -120 -25q-56 -26 -92 -70.5 t-60 -104t-34.5 -121.5t-10.5 -129q1 -15 -1 -45zM266 442q0 331 203 340h3q39 0 91 -22q54 -23 86 -55l-4 -541l-7 -6l-10.5 -7.5t-12.5 -9t-17 -10t-19.5 -9t-23.5 -9t-26.5 -7t-31 -5t-34.5 -1.5q-58 0 -99 31t-61.5 84.5t-28.5 108t-8 118.5z" />
<glyph unicode="e" d="M176 444q0 -137 35 -241q24 -79 81 -139.5t146 -67.5h27q49 0 93 17.5t70.5 39t49.5 50.5t30.5 43t12.5 26q9 19 1.5 39.5t-28.5 30.5q-19 12 -40.5 7t-30.5 -22l-17 -24l2 2q-17 -29 -33 -48t-52 -35q-26 -12 -58 -13q-11 0 -23 2q-41 6 -69.5 35.5t-53.5 91.5 q-24 79 -28 192h393q22 0 38 15t19 40q0 2 1 17t1 28q0 127 -43 215q-30 67 -94 111q-59 40 -144 39h-16q-91 -4 -151 -62t-84 -133q-30 -86 -35 -256zM295 532q9 87 27 132v-2q21 61 54 92t85 34q33 -1 54 -5.5t36.5 -18.5t21.5 -22.5t21 -34.5q30 -64 35 -181z" />
<glyph unicode="f" d="M188 842q0 -23 17 -37t43 -17h94v-733q0 -26 16.5 -42.5t40.5 -16.5q27 0 44.5 16.5t17.5 42.5v731h135q24 0 40.5 15.5t16.5 38.5q0 20 -17 34.5t-40 14.5h-135v145q0 46 16 84q1 1 4 5t4 5l-2 -2q10 12 15 16.5t16 8t31 4.5q45 0 102 -22q23 -9 47 -0.5t31 30.5 q6 13 6 27q0 11 -5 22q-9 24 -34 31q-85 31 -145 31h-10q-58 0 -103 -31q-48 -34 -67 -80q-25 -44 -25 -119v-153l-94 2q-25 0 -41.5 -14.5t-18.5 -36.5z" />
<glyph unicode="g" d="M174 442q1 -78 17 -151t47.5 -138t86 -109.5t126.5 -55.5h10q112 0 172 78q0 -9 1 -55.5t1 -59.5v-33q-3 -63 -12 -100.5t-32 -56t-38.5 -23.5t-57.5 -10q-8 -1 -12 -2q-58 0 -98 14q-8 5 -24.5 14t-22.5 13q-12 19 -33 24t-43 -4q-18 -9 -26 -31t0 -41 q38 -54 95.5 -74.5t153.5 -29.5q106 0 181 70q84 75 84 243q0 22 -1 395t-1 472v45q0 21 -18 37t-40 18q-25 -5 -41 -25l2 2q-1 -2 -10 -12t-10 -12q-2 1 -18 10t-21 12q-54 33 -121 35h-22q-116 -2 -197 -118q-78 -111 -78 -312v-20v-9zM289 444q2 54 6.5 98t12 76t14.5 56 t19.5 41t21 27.5t24.5 18.5t25.5 11.5t27.5 9.5l-2 -2q2 1 9.5 3t9.5 3h14q59 0 117 -32q22 -12 45 -35v-524q-21 -50 -85 -77q-50 -20 -83 -20q-10 0 -19 2q-65 17 -108 95q-49 96 -49 249z" />
<glyph unicode="h" d="M186 55q0 -24 18.5 -41.5t43.5 -17.5q26 0 43.5 17t17.5 42v631q78 96 180 98h3q58 0 88 -38q29 -36 28 -75v-5v-611q0 -25 18 -42t44 -17q25 0 44 17.5t19 41.5v631q0 78 -31 121q-22 31 -42 49t-66 32q-36 11 -82 12q-13 0 -27 -1q-93 -13 -176 -68v392 q0 28 -17.5 46.5t-43.5 18.5q-25 0 -43.5 -19t-18.5 -46v-1168z" />
<glyph unicode="i" d="M211 49q0 -24 16 -36.5t41 -12.5h385q25 0 40.5 12.5t15.5 36.5q0 21 -16 35t-40 14h-129v731q0 23 -16 39q-17 17 -41 17h-160q-25 0 -42 -16t-17 -38q0 -24 16.5 -37.5t42.5 -13.5h107v-682h-146q-24 0 -40.5 -14t-16.5 -35zM330 1178q0 -44 32 -76.5t78 -32.5 q44 0 75.5 32.5t31.5 76.5t-31.5 76t-75.5 32q-46 0 -78 -32t-32 -76z" />
<glyph unicode="j" d="M197 -246q-3 -8 -3 -17q0 -13 8 -27q11 -22 31 -32q134 -43 224 -43q14 -1 27 -1q136 0 206 104q11 18 18.5 37t11 40.5t5 33.5t2 33.5t0.5 23.5v925q0 24 -20 41q-17 17 -39 17h-314q-24 0 -40.5 -17t-16.5 -41q0 -25 16 -41t41 -16h256v-870q-2 -6 -2 -25 q-2 -27 -6.5 -44t-18.5 -38.5t-45.5 -32.5t-80.5 -12q-80 0 -187 37v-2q-22 6 -43 -3.5t-30 -29.5zM522 1157q0 -42 30.5 -72t70.5 -30q43 0 73.5 29.5t30.5 72.5t-30.5 74t-73.5 31q-40 0 -70.5 -31.5t-30.5 -73.5z" />
<glyph unicode="k" d="M186 57q0 -24 18.5 -41.5t43.5 -17.5q23 0 39 17t16 42v293q48 60 72 84q38 -60 100.5 -162.5t106.5 -175.5l43 -73q15 -27 51 -27q13 0 33 8l-2 -2q23 13 29 38q2 8 1 16q0 17 -8 32l-272 434l237 287q12 20 10.5 44.5t-18.5 37.5q-19 17 -42.5 15.5t-41.5 -19.5 q-4 -5 -31 -37t-36 -45q-20 -25 -75.5 -92.5t-97.5 -119.5t-59 -75l2 709q2 26 -13 43.5t-40 17.5t-44.5 -17.5t-19.5 -41.5z" />
<glyph unicode="l" d="M221 53q0 -24 17 -38.5t43 -14.5h362q24 0 39.5 14.5t15.5 38.5q0 22 -16 36.5t-39 14.5h-127v1110q0 21 -18 39q-19 19 -39 19h-170q-25 0 -42.5 -15.5t-17.5 -37.5q0 -21 17.5 -34.5t42.5 -13.5h117v-1067h-125q-25 0 -42.5 -14.5t-17.5 -36.5z" />
<glyph unicode="m" d="M104 854l5 -809q0 -25 16 -41t39 -16q22 0 38.5 16.5t16.5 40.5l-2 496q4 12 4 114v5q-1 78 29 108q29 30 69 29h5q8 0 18.5 -3.5t26 -13.5t27 -34.5t12.5 -59.5q2 -25 2 -111q-2 -10 -2 -520q0 -24 16.5 -40.5t38.5 -16.5t37.5 16.5t15.5 40.5q2 289 2 486v131 q0 56 19.5 86.5t46 34t50 -2t34.5 -16.5l8 -8v2q12 -12 16.5 -18t8 -21.5t4.5 -44.5v-39q0 -10 1 -47t1 -63q0 -104 -1 -287t-1 -189v-8q0 -24 15 -40.5t36 -16.5q57 2 57 57v572q0 89 -2 108q-7 71 -54.5 114.5t-111.5 43.5q-78 -3 -151 -88q-29 43 -67 67.5t-75 24.5 q-60 -3 -133 -55q-8 30 -25 51.5t-34 21.5q-23 0 -39.5 -17t-16.5 -40z" />
<glyph unicode="n" d="M195 53q0 -26 17 -42.5t42 -16.5t42 16.5t17 42.5l2 647q20 32 56.5 58t68.5 30q20 3 37 3q54 0 86 -28q43 -37 43 -79v-629q0 -25 17 -42t43 -17q24 0 41.5 17.5t17.5 41.5v621q0 66 -33 125q-24 43 -74 72q-48 28 -110 28h-4h-19q-12 -1 -23.5 -3.5t-20 -4t-18.5 -5 t-16 -5t-15.5 -6t-13.5 -6.5t-14 -7.5t-13.5 -7.5t-14 -9t-14.5 -9q-25 51 -64 51q-25 0 -43 -17.5t-18 -40.5z" />
<glyph unicode="o" d="M158 422q0 -141 51 -258q30 -73 94 -124.5t156 -51.5q99 1 166.5 55.5t95.5 130.5q41 102 41 258v17q0 159 -39 264q-29 76 -95 131q-62 51 -147 51h-12h-8q-100 0 -169 -58t-97 -139q-32 -87 -37 -247v-29zM276 422v8q0 134 33 232q27 59 57.5 83.5t96.5 30.5 q31 0 53.5 -6t49.5 -31t44 -71q37 -81 37 -219v-15q0 -130 -39 -213q-25 -58 -55.5 -83.5t-91.5 -31.5q-55 3 -85.5 27.5t-60.5 81.5q-21 43 -31 103q-9 50 -8 90v14z" />
<glyph unicode="p" d="M152 -295q0 -26 17.5 -44.5t43.5 -18.5q23 0 38 17.5t15 45.5v346l45 -24q9 -3 29.5 -10.5t32 -11.5t30 -8t35.5 -5q9 0 33 4q124 5 210 124q85 119 85 338v5q0 427 -309 438h-5q-76 0 -176 -63q-31 45 -67 45q-28 -4 -43 -31q-12 -25 -12 -62v-10zM270 172v236v290 q70 76 191 76q38 0 68.5 -14t49.5 -33.5t33 -51.5t20.5 -57.5t10 -62.5t4 -55t0.5 -47q-1 -90 -15.5 -155t-42 -101t-56 -54.5t-66.5 -29.5h-27q-91 0 -170 59z" />
<glyph unicode="q" d="M147 455q-1 -16 -1 -31q0 -93 22 -170q24 -89 68.5 -142t96 -81.5t107.5 -32.5q14 -2 37 -2q93 3 176 63l2 -352q0 -26 15.5 -43.5t38.5 -17.5q28 0 46.5 17.5t18.5 45.5v1102q1 6 1 13q0 18 -11 34q-14 21 -39 25h-6q-31 0 -64 -43q-81 52 -186 61q-13 0 -27 -2 q-56 -6 -101.5 -27.5t-75.5 -51t-52.5 -69.5t-34.5 -77.5t-19.5 -81t-9.5 -74.5t-2 -63zM264 455q1 56 10.5 106.5t30.5 100t62.5 79.5t99.5 31q10 2 21 2q36 0 76 -18q52 -24 81 -54l4 -14q0 -121 4 -510q-85 -63 -174 -63q-18 0 -26 2q-24 7 -33 9.5t-34 14.5t-37 25 t-31 39t-28.5 58.5t-17.5 81.5t-8 110z" />
<glyph unicode="r" d="M276 47q0 -25 16 -41t40 -16q25 0 41 16t16 41v565q0 84 61 130q53 40 114 41q9 0 18 -1q45 -3 80 -41q15 -15 39.5 -15t39.5 15q18 21 18 42.5t-18 39.5q-67 70 -161 70q-93 -3 -185 -74q-9 30 -26 49t-37 19q-23 0 -39.5 -17.5t-16.5 -40.5v-782z" />
<glyph unicode="s" d="M184 164.5q0 -25.5 15 -45.5q115 -125 272 -127h10q117 0 188 74q68 71 68 162v8v8q-2 49 -20.5 90.5t-42.5 67t-62 49t-63 34t-62 23.5q-44 18 -64 27t-45.5 24t-35 28t-16.5 33t-7 46q6 48 40.5 83.5t109.5 36.5q76 0 125 -36q6 -3 16 -12.5t13 -12.5 q15 -22 39.5 -29.5t44.5 4.5q22 12 26.5 37.5t-10.5 48.5q-4 6 -12 16t-29.5 28.5t-48.5 33t-71 26t-93 11.5h-3q-114 1 -186 -69q-73 -70 -75 -160v-15q0 -49 18 -89.5t40.5 -65t62.5 -48t61.5 -32t61.5 -23.5q100 -42 126 -61q46 -36 46 -105q-5 -63 -32 -90.5t-116 -38.5 q-65 0 -135 46q-27 16 -45 38l-8 5q-17 20 -40.5 22t-43.5 -12q-17 -13 -17 -38.5z" />
<glyph unicode="t" d="M184 840q0 -23 15.5 -37.5t36.5 -14.5h94v-577q0 -78 26 -123q16 -38 59.5 -67t98.5 -29q-2 0 0 2h33q97 13 170 80q17 17 17 41t-17 39q-17 17 -41 17t-41 -17h2q-10 -12 -52 -31t-53 -17h-12q-30 3 -40.5 8.5t-20.5 20.5q-1 1 -3 4t-3 4q-15 24 -15 76l4 569h213 q22 0 37 14.5t15 37.5q0 20 -15 34.5t-37 14.5h-213l4 305q0 23 -18 40t-41 17q-22 0 -38.5 -16t-16.5 -39l-2 -307h-94q-21 0 -36.5 -14.5t-15.5 -34.5z" />
<glyph unicode="u" d="M193 836l6 -603q0 -9 1.5 -24.5t13 -54t31.5 -69.5t63.5 -59.5t103.5 -35.5h2q8 -2 18 -2q44 1 74.5 8t44.5 14.5t44 27.5q7 5 11 7q27 -45 62 -45q24 0 41.5 17.5t17.5 43.5l-2 777q-2 25 -19.5 43t-41.5 18q-25 0 -42.5 -18t-17.5 -43l4 -668l-16 -14 q-16 -14 -30.5 -24.5t-44.5 -21.5t-64 -14h-13q-56 6 -92.5 49t-36.5 103v588q0 25 -17 41t-42 16t-42 -17t-17 -40z" />
<glyph unicode="v" d="M160 817v2q35 -129 105.5 -389t105.5 -389q4 -20 20.5 -32.5t38.5 -12.5h53q17 0 34.5 13.5t25.5 31.5q35 126 109.5 389t109.5 389v-2q2 9 2 17q0 16 -8 30q-12 22 -35 29h2q-11 3 -22 3q-16 0 -29 -7q-23 -12 -27 -37l-186 -700l-183 698q-6 26 -28 38q-14 8 -29 8 q-9 0 -18 -3q-23 -4 -35 -27q-8 -15 -8 -32q0 -8 2 -17z" />
<glyph unicode="w" d="M106 817l144 -776q6 -42 51 -45h6q19 0 30 6q13 6 15.5 11.5t7.5 19.5q16 63 97 375l104 -375h-2q7 -20 25 -30q13 -8 28 -8q4 0 9 1q45 4 51 49l141 772q1 6 1 12q0 17 -10 33q-13 20 -36 27q-4 1 -9 1q-19 0 -35 -12q-20 -14 -24 -36l-96 -635l-92 321 q-6 18 -22.5 29.5t-34.5 9.5q-18 0 -34 -11t-22 -30v2l-86 -321l-94 637q-6 22 -26 36q-15 10 -31 10q-5 0 -10 -1q-22 -5 -36 -25q-10 -16 -11 -35q0 -6 1 -12z" />
<glyph unicode="x" d="M181 44q7 -26 30 -40v2q16 -8 29 -8q15 0 30 8.5t23 20.5h-2q63 128 172 338l166 -340v2q19 -31 53 -31q15 0 31 8q20 12 26 37q2 8 2 16q0 16 -8 31l-203 361l197 339q12 22 6 49.5t-26 39.5q-22 13 -46 6t-36 -29v2q-26 -54 -89 -175t-73 -140l-158 319v-2 q-11 22 -35 30q-8 3 -16 2q-15 0 -29 -9q-21 -12 -27 -35.5t5 -48.5q23 -42 90.5 -162.5t101.5 -183.5l-207 -359q-9 -15 -9 -31q0 -8 2 -17z" />
<glyph unicode="y" d="M131 -459q3 -26 22.5 -43.5t45.5 -19.5q56 6 103.5 31.5t73.5 51t47.5 62t25.5 47t8 23.5h-2q53 186 160.5 557.5t160.5 556.5q4 14 4 27t-4 24q-9 24 -33 31q-10 4 -20 4q-15 0 -29 -9q-24 -13 -30 -40l-175 -584l-217 588q-8 25 -33 37q-14 7 -27 7q-11 0 -22 -5 q-24 -9 -32.5 -36t0.5 -54q45 -121 141 -379t141 -379l-94 -303l-4 -8q-3 -9 -6 -15l-8.5 -17t-12 -19t-15.5 -18.5t-19.5 -18t-23.5 -14t-28.5 -10t-33.5 -3.5q-27 -2 -45.5 -22.5t-18.5 -49.5z" />
<glyph unicode="z" d="M195 82q-7 -13 -7 -25q0 -15 9 -30q6 -12 20.5 -19.5t28.5 -7.5h428q24 0 41.5 16.5t17.5 40.5q0 23 -18 40.5t-41 17.5h-334l356 690v-2q6 12 6 26q0 19 -12 39q-10 21 -43 21h-375q-23 0 -39 -17t-16 -41q0 -25 16 -41t39 -16h281z" />
<glyph unicode="{" d="M324 639q0 -31 30 -49q76 -40 76 -172v-301q0 -155 45 -203q46 -55 160 -55q57 0 57 37q0 14 -11.5 24t-27.5 12q-73 6 -104 51t-31 144v297q0 88 -25.5 139t-93.5 82q57 34 73 51q44 48 46 166v299q0 80 26.5 128.5t73.5 60.5q9 2 29 6t29 6q16 16 16 29q0 39 -63 39 q-121 0 -164 -70q-35 -55 -35 -191v-299q0 -132 -76 -172q-20 -8 -25 -19.5t-5 -39.5z" />
<glyph unicode="|" d="M387 -184q0 -23 17 -39.5t40 -16.5t40.5 16.5t17.5 39.5v1636q0 24 -17 41.5t-41 17.5q-23 0 -40 -17t-17 -42v-1636z" />
<glyph unicode="}" d="M287 -104q0 14 11.5 24t27.5 12q73 6 104 51t31 144v297q0 152 108 219q-58 27 -83 80t-25 139v299q0 168 -101 189q-8 2 -28.5 6t-28.5 6q-16 16 -16 29q0 39 63 39q119 0 162 -70q37 -61 37 -191v-299q0 -132 76 -172q20 -8 25 -19.5t5 -39.5q0 -31 -30 -49 q-76 -40 -76 -172v-301q0 -155 -45 -203q-46 -55 -160 -55q-57 0 -57 37z" />
<glyph unicode="~" d="M41 606q1 -1 47 -53l6 12q15 29 43 80q40 75 37 76l-2 -2q42 57 100 57q50 0 195 -88q128 -82 178 -82q70 0 129.5 65t104.5 187l-45 49q-87 -207 -187 -207q-25 0 -174 86q-140 82 -205 82q-97 0 -151 -86q-18 -27 -76 -176z" />
<glyph unicode="&#xa0;" />
<glyph unicode="&#xa1;" d="M334 1366q0 -50 35 -84.5t84 -34.5q47 0 81.5 35t34.5 84t-34.5 84t-81.5 35q-49 0 -84 -34.5t-35 -84.5zM393 53q0 -25 17.5 -42t40.5 -17t40 17t17 42v967q0 24 -16.5 40.5t-40.5 16.5t-41 -16.5t-17 -40.5v-967z" />
<glyph unicode="&#xa6;" d="M432 254h57v446h-57v-446zM432 979h57v430h-57v-430z" />
<glyph unicode="&#xa7;" d="M121 625q0 -59 53 -123.5t180 -157.5l-2 2q32 -16 66 -45l178 -143q86 -67 86 -138q0 -54 -58.5 -99.5t-140.5 -51.5q-70 -3 -112 8q-48 12 -138 70v-2q-28 12 -38 10q-14 -2 -24.5 -13.5t-10.5 -29.5q0 -36 69 -74q127 -68 252 -59q125 11 208 83.5t83 170.5 q0 89 -164 233q228 156 228 309q0 89 -117 191h2q-25 19 -94 76q-43 29 -125.5 90t-114.5 84q-70 58 -70 121q0 52 53 99.5t122 53.5q88 3 161 -39q55 -28 66 -26q15 0 28 14.5t13 32.5q0 41 -78 78q-81 35 -193 26q-111 -9 -184 -82q-76 -73 -76 -168q0 -54 31 -100.5 t115 -110.5q-119 -54 -186.5 -130.5t-67.5 -159.5zM211 637q0 81 94 160q37 32 139 69l205 -159q101 -79 101 -152q0 -109 -207 -242l-269 217q-63 54 -63 107z" />
<glyph unicode="&#xab;" d="M117 563q0 -35 61 -110l168 -217q39 -48 57 -48q39 0 39 60q0 33 -18 51l-166 217q-21 26 -53 47q37 25 53 45l166 219q18 18 18 50q0 59 -41 59q-17 0 -55 -47l-168 -217q-61 -72 -61 -109zM481 563q0 -30 62 -110l166 -217q44 -48 59 -48q41 0 41 60q0 27 -18 51 l-170 217q-15 22 -46 47q34 27 46 45l170 219q18 24 18 50q0 59 -41 59q-18 0 -59 -47q-23 -32 -51 -68.5t-62 -80t-53 -68.5q-62 -77 -62 -109z" />
<glyph unicode="&#xad;" d="M129 545q0 -24 17.5 -41t41.5 -17h545q24 0 41 17t17 41q0 23 -17 39t-41 16h-545q-24 0 -41.5 -16t-17.5 -39z" />
<glyph unicode="&#xaf;" d="M129 545q0 -24 17.5 -41t41.5 -17h545q24 0 41 17t17 41q0 23 -17 39t-41 16h-545q-24 0 -41.5 -16t-17.5 -39z" />
<glyph unicode="&#xb1;" d="M80 807q0 -23 17 -40t40 -17h283v-297q0 -11 4 -19l20 -18q4 -4 19 -10h-2h4h12q15 0 31 8q2 0 6 4l6 6q4 4 8 12v6l4 4v5q0 1 1.5 4.5t1.5 5.5v289h260q23 0 39 17t16 40q0 25 -16 41t-39 16h-260v279l-7 24q0 1 -2 7v-3q-2 3 -12 17l-2 2q-4 0 -8 4q-11 0 -15 2 q-10 0 -14 4h-4q-17 -2 -29 -12l-10 -12q-4 -7 -6 -9l-4 -8q0 -1 -1 -3t-1 -3v-289h-283q-24 0 -40.5 -16.5t-16.5 -40.5zM129 195q0 -24 17.5 -41t41.5 -17h545q24 0 41 17t17 41q0 23 -17 39t-41 16h-545q-24 0 -41.5 -16t-17.5 -39zM504 1194l8 -2q-1 0 -3 1t-3 1h-2z M532 442l3 7l-3 -3v-4z" />
<glyph unicode="&#xb4;" d="M309 1300q3 -5 9 -16t12 -22.5t10 -22.5q57 49 264 238l-51 88q-94 -101 -244 -265z" />
<glyph unicode="&#xb5;" d="M193 836l6 -603v-702q0 -23 17 -39t40 -16q25 0 41 16t16 39v496q2 -1 21.5 -9.5t21.5 -9.5q24 -12 58 -18q8 -2 18 -2q92 3 174 57q27 -45 62 -45q24 0 41.5 17.5t17.5 43.5l-2 777q-2 25 -19.5 43t-41.5 18q-25 0 -42.5 -18t-17.5 -43l2 -639q0 -11 -7 -27.5t-22 -37 t-47.5 -34.5t-76.5 -14h-13q-65 5 -106 84q-10 28 -15 55l-2 4l-6 607q0 25 -17 41t-42 16t-42 -17t-17 -40z" />
<glyph unicode="&#xb6;" d="M70 1073q0 -146 77 -276q84 -144 220 -135l55 2v-918h78v1636h209v-1636h77v1636h66v95h-373q-187 0 -298 -109.5t-111 -294.5z" />
<glyph unicode="&#xbb;" d="M117 248q0 27 18 51l170 217q16 24 45 47q-32 26 -45 45l-170 219q-18 24 -18 50q0 59 41 59q18 0 59 -47l166 -217q61 -76 61 -109q0 -31 -61 -110q-19 -25 -53 -68.5t-62 -80t-51 -68.5q-44 -48 -59 -48q-41 0 -41 60zM483 248q0 32 19 51q23 32 51 68.5t62 80t53 68.5 q16 20 53 47q-36 24 -53 45l-166 219q-19 19 -19 50q0 59 41 59q18 0 56 -47l168 -217q61 -72 61 -109q0 -35 -61 -110l-168 -217q-39 -48 -58 -48q-39 0 -39 60z" />
<glyph unicode="&#xbf;" d="M168 266q0 -120 83.5 -195t217.5 -75q111 0 231 63q62 26 62 64q0 18 -10 30.5t-25 12.5q-21 0 -68 -21h3q-102 -55 -189 -55q-94 0 -155.5 49t-61.5 127q0 77 96 154q116 82 133 117q23 56 23 127v174q0 49 -45 49t-45 -49v-172q0 -87 -53 -125l-37 -27l-35 -27 q-4 -2 -11.5 -6.5t-12 -7t-7.5 -2.5q-94 -102 -94 -205zM360 1163q0 -49 33.5 -82.5t83.5 -33.5q48 0 82.5 33.5t34.5 82.5t-34.5 84t-82.5 35q-49 0 -83 -34.5t-34 -84.5z" />
<glyph unicode="&#xc0;" d="M147 63q-6 -25 5.5 -43.5t33.5 -21.5q25 -5 45 6.5t23 34.5l49 266h309l56 -264q3 -21 18 -33t37 -12q6 0 10 2q21 3 33.5 23t9.5 42q-38 186 -120.5 590t-120.5 590q-3 21 -18 35t-36 16h-53q-20 1 -35.5 -13t-21.5 -36zM326 418l129 733l135 -733h-264zM326 1639.5 q4 -22.5 24 -37.5l225 -160q18 -10 42 -6.5t36 20.5q13 20 9 43t-23 37q-36 26 -111.5 80.5t-111.5 79.5q-19 15 -42 11t-38 -26q-14 -19 -10 -41.5z" />
<glyph unicode="&#xc1;" d="M147 63q-6 -25 5.5 -43.5t33.5 -21.5q25 -5 45 6.5t23 34.5l49 266h309l56 -264q3 -21 18 -33t37 -12q6 0 10 2q21 3 33.5 23t9.5 42q-38 186 -120.5 590t-120.5 590q-3 21 -18 35t-36 16h-53q-20 1 -35.5 -13t-21.5 -36zM262.5 1505.5q-6.5 -23.5 5.5 -45.5 q13 -18 36.5 -23t41.5 3q39 23 119 69t119 70q20 10 27.5 30.5t-1.5 35.5q-12 24 -38 33t-46 -3l-237 -137v2q-20 -11 -26.5 -34.5zM326 418l129 733l135 -733h-264z" />
<glyph unicode="&#xc2;" d="M147 63q-6 -25 5.5 -43.5t33.5 -21.5q25 -5 45 6.5t23 34.5l49 266h309l56 -264q3 -21 18 -33t37 -12q6 0 10 2q21 3 33.5 23t9.5 42q-38 186 -120.5 590t-120.5 590q-3 21 -18 35t-36 16h-53q-20 1 -35.5 -13t-21.5 -36zM186.5 1444q-7.5 -19 1.5 -37q12 -26 34.5 -35.5 t41.5 2.5l193 123l176 -137q17 -8 38.5 -5t30.5 17q15 22 12 45t-22 37q-93 73 -207 158q-15 11 -33 10.5t-30 -12.5l-209 -133q-19 -14 -26.5 -33zM326 418l129 733l135 -733h-264z" />
<glyph unicode="&#xc3;" d="M147 63q-6 -25 5.5 -43.5t33.5 -21.5q25 -5 45 6.5t23 34.5l49 266h309l56 -264q3 -21 18 -33t37 -12q6 0 10 2q21 3 33.5 23t9.5 42q-38 186 -120.5 590t-120.5 590q-3 21 -18 35t-36 16h-53q-20 1 -35.5 -13t-21.5 -36zM217 1477q0 -12 13 -21.5t30 -9.5q23 0 39 16v-2 q59 56 86 53q21 -4 49 -14q120 -57 144 -57q31 0 84 59q45 48 45 74q0 12 -12 20.5t-29 8.5q-26 0 -54 -31q-32 -37 -65 -37q-40 0 -107 37h2q-76 31 -84 31q-25 -5 -86 -56q-55 -58 -55 -71zM326 418l129 733l135 -733h-264z" />
<glyph unicode="&#xc4;" d="M147 63q-6 -25 5.5 -43.5t33.5 -21.5q25 -5 45 6.5t23 34.5l49 266h309l56 -264q3 -21 18 -33t37 -12q6 0 10 2q21 3 33.5 23t9.5 42q-38 186 -120.5 590t-120.5 590q-3 21 -18 35t-36 16h-53q-20 1 -35.5 -13t-21.5 -36zM186 1501q0 -38 26.5 -65t63.5 -27t64 27t27 65 t-27 65t-64 27t-63.5 -27t-26.5 -65zM326 418l129 733l135 -733h-264zM543 1501q0 -38 26.5 -65t63.5 -27q38 0 65 27t27 65t-27 65t-65 27q-37 0 -63.5 -27t-26.5 -65z" />
<glyph unicode="&#xc5;" d="M147 63q-6 -25 5.5 -43.5t33.5 -21.5q25 -5 45 6.5t23 34.5l49 266h309l56 -264q3 -21 18 -33t37 -12q6 0 10 2q21 3 33.5 23t9.5 42q-38 186 -120.5 590t-120.5 590q-3 21 -18 35t-36 16h-53q-20 1 -35.5 -13t-21.5 -36zM326 418l129 733l135 -733h-264zM350 1501 q0 -38 27 -65t65 -27q37 0 63.5 27t26.5 65t-26.5 65t-63.5 27q-38 0 -65 -27t-27 -65z" />
<glyph unicode="&#xc6;" d="M-20 59q-8 -22 0.5 -40t29.5 -21q22 -5 43.5 8t28.5 37l90 262h307l15 -250v-16q3 -20 15.5 -31.5t31.5 -11.5q6 0 10 2l12 2h316q22 0 37 15t16 40q-1 22 -19 37.5t-41 20.5q-43 0 -140 1t-140 1l-23 463h174q24 0 39.5 15t12.5 36q-1 25 -18 42t-40 19h-176l-10 180 q-2 48 -8 159.5t-8 162.5l278 -2q21 0 36.5 14.5t12.5 34.5q0 27 -17.5 45.5t-39.5 18.5h-324q-9 0 -32 -9q-21 1 -42.5 -15t-31.5 -36q-63 -192 -197 -592.5t-198 -591.5zM211 418l227 688l6 -94l15 -293q2 -46 7 -150.5t7 -150.5h-262z" />
<glyph unicode="&#xc7;" d="M147 618q11 -376 117 -534q41 -57 106 -81t119 -26q-18 -107 -77 -237l-6 -14q-11 -18 -6.5 -41t22.5 -33h-2q24 -8 31 -8q30 0 51 30l-2 -2q0 1 7 14.5t10.5 21.5t12 26.5t14.5 34t14 37.5t13.5 44t11.5 47t10.5 52.5t6.5 54.5q38 20 70 50.5t49.5 59.5t30 56.5t16.5 43 t4 19.5q6 26 -3 47.5t-28 24.5q-27 9 -50.5 -4.5t-29.5 -38.5q-2 -8 -6.5 -20.5t-21 -44t-36 -55t-52.5 -41.5t-70 -15q-4 2 -12 2q-59 14 -103 68q-35 46 -65.5 168t-34.5 297q-2 18 -2 57q3 96 11 172t19 127t29 89t33 58.5t39.5 35.5t40.5 20.5t43 11.5h23q50 0 104 -39 q23 -23 35 -47l-2 2l10 -10q10 -23 30 -30.5t42 3.5q20 10 27.5 34.5t-1.5 43.5q-3 7 -10.5 20t-28 36.5t-46 43.5t-67.5 35t-89 16q-23 0 -39 -2q-51 -4 -96 -27t-87.5 -74t-71.5 -126.5t-45 -191.5t-12 -261z" />
<glyph unicode="&#xc8;" d="M248 55q0 -23 15.5 -39t37.5 -16l414 -2q22 0 38 15t17 38q0 24 -17 38.5t-40 16.5q-57 0 -179 2.5t-176 2.5v510h213q22 0 39 15t17 36q0 24 -15.5 39.5t-38.5 17.5h-215v445l353 -3q22 0 38.5 16t16.5 38q0 25 -15.5 42t-37.5 17l-410 2q-23 0 -39 -16q-16 -13 -16 -41 v-1174zM324.5 1639.5q3.5 -22.5 25.5 -37.5l223 -160q18 -10 43 -6.5t35 20.5q13 21 9.5 43.5t-21.5 36.5q-36 26 -111.5 80.5t-111.5 79.5q-20 15 -43.5 11t-36.5 -26q-15 -19 -11.5 -41.5z" />
<glyph unicode="&#xc9;" d="M231 55q0 -23 16 -39t38 -16l413 -2q22 0 38.5 15t17.5 38q0 22 -17 37t-39 18q-57 0 -179 2.5t-177 2.5v510h213q22 0 38.5 15t16.5 36q0 24 -15.5 39.5t-37.5 17.5h-215v445l352 -3q22 0 39 16t17 38q0 25 -16 42t-38 17l-409 2q-23 0 -39 -16q-17 -14 -17 -41v-1174z M295.5 1505.5q-6.5 -23.5 5.5 -45.5q13 -18 36.5 -23t41.5 3q12 7 101.5 59t135.5 80q20 11 26.5 33.5t-5.5 42.5v2q-11 17 -34.5 22.5t-43.5 -4.5l-237 -137v2q-20 -11 -26.5 -34.5z" />
<glyph unicode="&#xca;" d="M213.5 1534.5q-7.5 -20.5 1.5 -37.5q13 -26 35 -35.5t41 2.5l192 123l179 -137q14 -8 36.5 -5t32.5 17q13 22 10 45.5t-22 38.5q-125 94 -205 158q-40 21 -63 -2l-211 -135q-19 -12 -26.5 -32.5zM217 55q0 -23 15.5 -39t37.5 -16l414 -2q22 0 38 15t17 38q0 24 -17 38.5 t-40 16.5q-57 0 -178.5 2.5t-175.5 2.5v510h213q22 0 38.5 15t16.5 36q0 24 -15.5 39.5t-37.5 17.5h-215v445l352 -3q22 0 38.5 16t16.5 38q0 25 -15.5 42t-37.5 17l-410 2q-23 0 -39 -16q-16 -13 -16 -41v-1174z" />
<glyph unicode="&#xcb;" d="M215 1540q0 -37 26.5 -64.5t63.5 -27.5t63.5 27.5t26.5 64.5q0 38 -26.5 66t-63.5 28t-63.5 -28t-26.5 -66zM240 55q0 -23 14.5 -39t36.5 -16l414 -2q22 0 38 15t17 38q0 23 -17.5 38t-40.5 17q-57 0 -178 2.5t-176 2.5v510h213q22 0 38.5 15t16.5 36q0 24 -15.5 39.5 t-37.5 17.5h-215v445l352 -3q22 0 39 16t17 38q0 25 -16 42t-38 17l-409 2q-23 0 -39 -16q-14 -14 -14 -41v-1174zM571 1540q0 -37 27 -64.5t64 -27.5q38 0 65 27.5t27 64.5q0 38 -27 66t-65 28q-37 0 -64 -28t-27 -66z" />
<glyph unicode="&#xcc;" d="M209 53q0 -24 15.5 -37.5t39.5 -13.5h389q25 0 42.5 13.5t17.5 37.5q0 21 -18 36t-42 15h-137l2 1078h137q24 0 41 15t17 38q0 22 -17 35.5t-41 13.5h-391q-24 0 -39.5 -13t-15.5 -36t16 -38t39 -15h139l-4 -1078h-135q-23 0 -39 -14.5t-16 -36.5zM326.5 1640 q4.5 -23 25.5 -38l223 -160q18 -10 42 -6.5t36 20.5q13 21 9.5 43.5t-21.5 36.5q-36 25 -112.5 79.5t-112.5 80.5q-19 15 -42 11t-38 -26q-14 -18 -9.5 -41z" />
<glyph unicode="&#xcd;" d="M209 53q0 -24 15.5 -37.5t39.5 -13.5h389q25 0 42.5 13.5t17.5 37.5q0 21 -18 36t-42 15h-137l2 1078h137q24 0 41 15t17 38q0 22 -17 35.5t-41 13.5h-391q-24 0 -39.5 -13t-15.5 -36t16 -38t39 -15h139l-4 -1078h-135q-23 0 -39 -14.5t-16 -36.5zM297 1505.5 q-6 -23.5 6 -45.5q11 -18 35.5 -23t42.5 3q39 23 117.5 69t117.5 70q22 11 28 33.5t-7 42.5v2q-11 17 -33.5 22.5t-44.5 -4.5l-237 -137v2q-19 -11 -25 -34.5z" />
<glyph unicode="&#xce;" d="M213.5 1534.5q-7.5 -20.5 1.5 -37.5q13 -26 35 -35.5t41 2.5l192 123l179 -137q14 -8 36.5 -5t32.5 17q13 22 10 45.5t-22 38.5q-125 94 -205 158q-40 21 -63 -2l-211 -135q-19 -12 -26.5 -32.5zM219 53q0 -24 16.5 -37.5t40.5 -13.5h390q24 0 40.5 13.5t16.5 37.5 q0 22 -17 36.5t-40 14.5h-138l2 1078h138q23 0 39 15t16 38t-15.5 36t-39.5 13h-392q-24 0 -40.5 -13t-16.5 -36t16.5 -38t40.5 -15h140l-4 -1078h-136q-23 0 -40 -14.5t-17 -36.5z" />
<glyph unicode="&#xcf;" d="M215 1540q0 -37 27 -64.5t65 -27.5q35 0 61.5 27.5t26.5 64.5q0 38 -26.5 66t-61.5 28q-38 0 -65 -28t-27 -66zM217 53q0 -24 16.5 -37.5t40.5 -13.5h388q26 0 42.5 13.5t16.5 37.5q0 22 -17 36.5t-42 14.5h-136l2 1078h138q23 0 39 15t16 38t-15.5 36t-39.5 13h-392 q-24 0 -40.5 -13t-16.5 -36t16.5 -38t40.5 -15h140l-4 -1078h-136q-23 0 -40 -14.5t-17 -36.5zM571 1540q0 -37 27 -64.5t64 -27.5q38 0 65 27.5t27 64.5q0 38 -27 66t-65 28q-37 0 -64 -28t-27 -66z" />
<glyph unicode="&#xd1;" d="M172 55q0 -23 14.5 -38t36.5 -15t37.5 15t15.5 38l5 811l36 6l310 -837q11 -30 41 -33l18 -2q4 -2 8 -2q21 0 35 14q19 15 19 39l-5 1170q0 22 -15 37.5t-38 15.5q-22 0 -37.5 -15.5t-15.5 -37.5l4 -805l-39 -6l-307 833v-2q-6 19 -22.5 28.5t-34.5 6.5l-23 -2 q-16 -6 -28.5 -21.5t-12.5 -31.5zM217 1477q0 -12 13 -21.5t30 -9.5q23 0 39 16v-2q59 56 86 53q21 -4 49 -14q120 -57 144 -57q31 0 84 59q45 48 45 74q0 12 -12 20.5t-29 8.5q-26 0 -54 -31q-32 -37 -65 -37q-40 0 -107 37h2q-76 31 -84 31q-25 -5 -86 -56 q-55 -58 -55 -71z" />
<glyph unicode="&#xd2;" d="M133 627q0 -295 81.5 -462.5t238.5 -182.5h12q86 0 151 54.5t101 141.5q71 170 71 436v9q-3 89 -10 165.5t-21.5 157t-39.5 142.5t-59.5 111.5t-85 75t-113.5 23.5q-1 0 -2 0.5t-3 0.5t-5 -1q-88 -4 -152.5 -62.5t-97.5 -148.5q-66 -172 -66 -442v-18zM254 631v20 q0 259 53 391q32 73 68.5 104.5t87.5 33.5q51 1 87.5 -34t65.5 -112q54 -129 54 -405v-15q0 -253 -62 -383q-33 -71 -66 -99t-77 -28h-10q-28 0 -54 14t-53 50.5t-46.5 94t-32.5 152t-15 216.5zM293 1639.5q4 -22.5 24 -37.5l224 -160q18 -10 42.5 -6.5t34.5 20.5 q13 21 9.5 43.5t-21.5 36.5q-36 26 -111.5 80.5t-111.5 79.5q-19 15 -43 11t-37 -26q-14 -19 -10 -41.5z" />
<glyph unicode="&#xd3;" d="M133 627q0 -295 81.5 -462.5t238.5 -182.5h12q86 0 151 54.5t101 141.5q71 170 71 436v9q-3 89 -10 165.5t-21.5 157t-39.5 142.5t-59.5 111.5t-85 75t-113.5 23.5q-1 0 -2 0.5t-3 0.5t-5 -1q-88 -4 -152.5 -62.5t-97.5 -148.5q-66 -172 -66 -442v-18zM254 631v20 q0 259 53 391q32 73 68.5 104.5t87.5 33.5q51 1 87.5 -34t65.5 -112q54 -129 54 -405v-15q0 -253 -62 -383q-33 -71 -66 -99t-77 -28h-10q-28 0 -54 14t-53 50.5t-46.5 94t-32.5 152t-15 216.5zM275.5 1505.5q-5.5 -23.5 7.5 -45.5q12 -18 34.5 -23t42.5 3q39 23 118 69 t118 70q20 10 26 33t-6 43v2q-11 17 -34 22.5t-43 -4.5l-238 -137v2q-20 -11 -25.5 -34.5z" />
<glyph unicode="&#xd4;" d="M133 627q0 -295 81.5 -462.5t238.5 -182.5h12q86 0 151 54.5t101 141.5q71 170 71 436v9q-3 89 -10 165.5t-21.5 157t-39.5 142.5t-59.5 111.5t-85 75t-113.5 23.5q-1 0 -2 0.5t-3 0.5t-5 -1q-88 -4 -152.5 -62.5t-97.5 -148.5q-66 -172 -66 -442v-18zM197 1469 q-7 -20 2 -37q14 -26 35 -35t40 4l193 121l178 -138q15 -8 37.5 -4.5t32.5 17.5q13 22 9.5 45.5t-22.5 38.5q-121 91 -206 157q-15 9 -33.5 8.5t-28.5 -10.5l-211 -135q-19 -12 -26 -32zM254 631v20q0 259 53 391q32 73 68.5 104.5t87.5 33.5q51 1 87.5 -34t65.5 -112 q54 -129 54 -405v-15q0 -253 -62 -383q-33 -71 -66 -99t-77 -28h-10q-28 0 -54 14t-53 50.5t-46.5 94t-32.5 152t-15 216.5z" />
<glyph unicode="&#xd5;" d="M133 627q0 -295 81.5 -462.5t238.5 -182.5h12q86 0 151 54.5t101 141.5q71 170 71 436v9q-3 89 -10 165.5t-21.5 157t-39.5 142.5t-59.5 111.5t-85 75t-113.5 23.5q-1 0 -2 0.5t-3 0.5t-5 -1q-88 -4 -152.5 -62.5t-97.5 -148.5q-66 -172 -66 -442v-18zM217 1477 q0 -12 13 -21.5t30 -9.5q23 0 39 16v-2q59 56 86 53q21 -4 49 -14q120 -57 144 -57q31 0 84 59q45 48 45 74q0 12 -12 20.5t-29 8.5q-26 0 -54 -31q-32 -37 -65 -37q-40 0 -107 37h2q-76 31 -84 31q-25 -5 -86 -56q-55 -58 -55 -71zM254 631v20q0 259 53 391 q32 73 68.5 104.5t87.5 33.5q51 1 87.5 -34t65.5 -112q54 -129 54 -405v-15q0 -253 -62 -383q-33 -71 -66 -99t-77 -28h-10q-28 0 -54 14t-53 50.5t-46.5 94t-32.5 152t-15 216.5z" />
<glyph unicode="&#xd6;" d="M133 627q0 -295 81.5 -462.5t238.5 -182.5h12q86 0 151 54.5t101 141.5q71 170 71 436v9q-3 89 -10 165.5t-21.5 157t-39.5 142.5t-59.5 111.5t-85 75t-113.5 23.5q-1 0 -2 0.5t-3 0.5t-5 -1q-88 -4 -152.5 -62.5t-97.5 -148.5q-66 -172 -66 -442v-18zM186 1501 q0 -38 26.5 -65t63.5 -27t64 27t27 65t-27 65t-64 27t-63.5 -27t-26.5 -65zM254 631v20q0 259 53 391q32 73 68.5 104.5t87.5 33.5q51 1 87.5 -34t65.5 -112q54 -129 54 -405v-15q0 -253 -62 -383q-33 -71 -66 -99t-77 -28h-10q-28 0 -54 14t-53 50.5t-46.5 94t-32.5 152 t-15 216.5zM543 1501q0 -38 26.5 -65t63.5 -27q38 0 65 27t27 65t-27 65t-65 27q-37 0 -63.5 -27t-26.5 -65z" />
<glyph unicode="&#xd7;" d="M181 43.5q7 -26.5 30 -39.5v2q16 -8 29 -8q15 0 30 8.5t23 20.5h-2q63 128 172 338l166 -340v2q19 -31 53 -31q15 0 31 8q20 12 26 37t-6 47l-203 361l197 339q12 22 6 49.5t-26 39.5q-22 13 -46 6t-36 -29v2q-26 -54 -89 -175t-73 -140l-158 319v-2q-11 22 -34.5 29.5 t-45.5 -6.5q-21 -12 -27 -35.5t5 -48.5q23 -42 90.5 -162.5t101.5 -183.5l-207 -359q-14 -22 -7 -48.5z" />
<glyph unicode="&#xd8;" d="M34.5 132q3.5 -23 22.5 -38q21 -15 43 -11t37 23l62 82q39 -95 104.5 -146.5t149.5 -59.5h12q86 0 151 54.5t99 141.5q71 163 71 436v9q-7 198 -34 327q3 4 11 16.5t11 16.5q56 75 72 96q13 19 35 47q1 1 2 3.5t2 3.5l6 10l4 4q9 19 6 35q0 2 -1 6.5t-1 7.5q-2 2 -2 4 l-2 4q-8 15 -37 25q-19 3 -37 -2q-13 -3 -20 -19q-6 -9 -33 -45q-4 -4 -26.5 -34t-30.5 -39q-35 96 -90 150.5t-150 57.5h-5q-5 1 -9.5 1t-7.5 -1q-88 -4 -152.5 -62.5t-97.5 -148.5q-66 -172 -66 -442v-18q0 -176 27 -295l-115 -158q-14 -19 -10.5 -42zM254 631v20 q0 259 53 391q32 74 65 104.5t83 33.5q49 -2 87 -31t66 -115q9 -18 13 -30l-3 2l11 -31q-38 -55 -172 -236q-124 -167 -197 -266q-6 93 -6 158zM281 295q5 7 57.5 79t79.5 111q18 23 53.5 73t54.5 75q8 14 22 32.5t15 20.5v-2q3 4 99 137q8 -156 8 -192v-15q0 -253 -62 -383 q-33 -71 -66 -99t-77 -28h-10q-111 14 -174 191z" />
<glyph unicode="&#xd9;" d="M193 297q0 -61 10.5 -110t37 -96t80.5 -75t132 -32h18q69 -2 121 23.5t80 69t41.5 90.5t13.5 97q0 3 1 8t1 7v946q0 26 -19 43.5t-44 17.5t-42.5 -17.5t-17.5 -43.5v-961q0 -2 -1 -8t-1 -10q-2 -23 -4 -39t-11.5 -39.5t-24 -37.5t-42.5 -25t-67 -11q-37 0 -64.5 14.5 t-41.5 33t-23 49t-11 47.5t-4 43v944q0 26 -16.5 43.5t-42.5 17.5q-24 0 -41.5 -17.5t-17.5 -43.5v-928zM318 1639.5q4 -22.5 24 -37.5l223 -160q20 -10 44 -6.5t36 20.5q13 20 9 43t-23 37q-36 26 -111.5 80.5t-111.5 79.5q-19 15 -43 11t-37 -26q-14 -19 -10 -41.5z" />
<glyph unicode="&#xda;" d="M193 297q0 -61 10.5 -110t37 -96t80.5 -75t132 -32h18q69 -2 121 23.5t80 69t41.5 90.5t13.5 97q0 3 1 8t1 7v946q0 26 -19 43.5t-44 17.5t-42.5 -17.5t-17.5 -43.5v-961q0 -2 -1 -8t-1 -10q-2 -23 -4 -39t-11.5 -39.5t-24 -37.5t-42.5 -25t-67 -11q-37 0 -64.5 14.5 t-41.5 33t-23 49t-11 47.5t-4 43v944q0 26 -16.5 43.5t-42.5 17.5q-24 0 -41.5 -17.5t-17.5 -43.5v-928zM311 1505.5q-6 -23.5 6 -45.5q11 -18 35.5 -23t42.5 3q39 23 118 69t118 70q22 10 28 33t-6 43v2q-12 17 -35 22.5t-43 -4.5l-239 -137v2q-19 -11 -25 -34.5z" />
<glyph unicode="&#xdb;" d="M193 297q0 -61 10.5 -110t37 -96t80.5 -75t132 -32h18q69 -2 121 23.5t80 69t41.5 90.5t13.5 97q0 3 1 8t1 7v946q0 26 -19 43.5t-44 17.5t-42.5 -17.5t-17.5 -43.5v-961q0 -2 -1 -8t-1 -10q-2 -23 -4 -39t-11.5 -39.5t-24 -37.5t-42.5 -25t-67 -11q-37 0 -64.5 14.5 t-41.5 33t-23 49t-11 47.5t-4 43v944q0 26 -16.5 43.5t-42.5 17.5q-24 0 -41.5 -17.5t-17.5 -43.5v-928zM214.5 1534.5q-7.5 -19.5 2.5 -37.5q12 -26 34 -35.5t42 2.5l190 123l179 -137q14 -8 36.5 -5t32.5 17q13 22 10 45.5t-20 38.5q-113 85 -207 158q-40 21 -63 -2 l-211 -135q-18 -13 -25.5 -32.5z" />
<glyph unicode="&#xdc;" d="M190 1546q0 -38 27.5 -66t65.5 -28q35 0 61.5 28t26.5 66q0 37 -26.5 64.5t-61.5 27.5q-38 0 -65.5 -27.5t-27.5 -64.5zM193 297q0 -61 10.5 -110t37 -96t80.5 -75t132 -32h18q69 -2 121 23.5t80 69t41.5 90.5t13.5 97q0 3 1 8t1 7v946q0 26 -19 43.5t-44 17.5 t-42.5 -17.5t-17.5 -43.5v-961q0 -2 -1 -8t-1 -10q-2 -23 -4 -39t-11.5 -39.5t-24 -37.5t-42.5 -25t-67 -11q-37 0 -64.5 14.5t-41.5 33t-23 49t-11 47.5t-4 43v944q0 26 -16.5 43.5t-42.5 17.5q-24 0 -41.5 -17.5t-17.5 -43.5v-928zM547 1546q0 -38 26.5 -66t63.5 -28 q38 0 65 28t27 66q0 37 -27 64.5t-65 27.5q-37 0 -63.5 -27.5t-26.5 -64.5z" />
<glyph unicode="&#xdf;" d="M186 39q0 -23 16.5 -39t41.5 -16q22 0 37.5 16t15.5 39v922q0 89 56 145.5t122 54.5q42 -1 74 -16t50 -39.5t27 -52.5t9 -58q0 -73 -76 -145q-19 -18 -39 -34t-30 -23l-11 -7q-18 -9 -24.5 -27.5t2.5 -35.5q6 -18 26.5 -27.5t46.5 -7.5q0 -8 -6 -8q158 -23 162 -334 q-2 -47 -9.5 -85t-16.5 -63t-24 -44t-27 -29t-31.5 -17.5t-30.5 -10t-31 -5.5q-8 -1 -12 -2q-8 0 -22.5 1t-16.5 1q-23 4 -41 -7.5t-23 -33.5q-4 -23 7.5 -41.5t33.5 -23.5l58 -4q111 0 186 65q109 94 109 299q0 152 -46 263t-135 151q53 45 91.5 108t39.5 127 q4 67 -25.5 129t-94 104.5t-150.5 43.5q-116 0 -202.5 -89.5t-86.5 -221.5v-922z" />
<glyph unicode="&#xe0;" d="M188 236q0 -126 84 -193q68 -55 162 -55h27q66 10 151 57q7 -29 24.5 -45t37.5 -16q26 2 42 13.5t15 33.5l-2 157q7 13 0 33v467q0 72 -41 129q-29 40 -84.5 64t-126.5 24q-47 -1 -89.5 -14t-69 -30.5t-47.5 -38t-29 -31.5t-11 -17q-11 -22 -4 -45t27 -33 q22 -12 44.5 -5.5t33.5 26.5q10 21 33 35q45 39 112 39q45 -1 73.5 -9t40.5 -23t15 -25t4 -27q0 -7 4 -15l-2 -131q-2 -4 -2 -24q-28 -10 -71 -17q-320 -43 -351 -274v-10zM305 242q3 75 42.5 115t125.5 55q4 1 14 2t15 2t18 4.5t33.5 5.5t60.5 2v-238q-15 -26 -36 -47 q-36 -36 -111 -43q-3 0 -10.5 -1t-10.5 -1h-16q-29 4 -46 9t-37.5 19t-30.5 43t-11 73zM326 1264q4 -24 24 -37l225 -160q18 -10 42 -6.5t36 20.5q13 19 9 42.5t-23 37.5q-24 17 -70 50t-83.5 59.5t-69.5 48.5q-19 17 -42 13.5t-38 -25.5q-14 -19 -10 -43z" />
<glyph unicode="&#xe1;" d="M188 236q0 -126 84 -193q68 -55 162 -55h27q66 10 151 57q7 -29 24.5 -45t37.5 -16q26 2 42 13.5t15 33.5l-2 657q0 72 -41 129q-29 40 -84.5 64t-126.5 24q-47 -1 -89.5 -14t-69 -30.5t-47.5 -38t-29 -31.5t-11 -17q-11 -22 -4 -45t27 -33q22 -12 44.5 -5.5t33.5 26.5 q10 21 33 35q45 39 112 39q45 -1 74 -9t41 -22.5t15.5 -25t4.5 -27.5v-146q-2 -4 -2 -24q-18 -7 -71 -15q-112 -15 -155 -28q-188 -58 -196 -248v-10zM305 242q3 75 42.5 115t125.5 55q13 2 35 6.5t42.5 6.5t63.5 3v-238q-15 -26 -36 -47q-36 -36 -111 -43q-3 0 -10.5 -1 t-10.5 -1h-16q-29 4 -46 9t-37.5 19t-30.5 43t-11 73zM330 1144q-6 -24 6 -46q13 -18 36.5 -23.5t41.5 2.5q39 24 118.5 70t118.5 70q20 10 28 30t-1 35q-12 25 -38 34t-46 -3l-238 -137v2q-20 -10 -26 -34z" />
<glyph unicode="&#xe2;" d="M188 236q0 -126 84 -193q68 -55 162 -55h27q66 10 151 57q7 -29 24.5 -45t37.5 -16q26 2 42 13.5t15 33.5l-2 657q0 72 -41 129q-29 40 -84.5 64t-126.5 24q-47 -1 -89.5 -14t-69 -30.5t-47.5 -38t-29 -31.5t-11 -17q-11 -22 -4 -45t27 -33q22 -12 44.5 -5.5t33.5 26.5 q10 21 33 35q45 39 112 39q45 -1 74 -9t41 -22.5t15.5 -25t4.5 -27.5v-146q-2 -4 -2 -24q-18 -7 -71 -15q-112 -15 -155 -28q-188 -58 -196 -248v-10zM233 1139.5q-7 -18.5 3 -37.5q12 -25 33.5 -34t41.5 3l191 123l178 -137q15 -8 38 -5t32 17q13 20 9.5 44t-20.5 38 q-93 73 -207 158q-40 21 -63 -2l-211 -136q-18 -13 -25 -31.5zM305 242q3 75 42.5 115t125.5 55q13 2 35 6.5t42.5 6.5t63.5 3v-238q-15 -26 -36 -47q-36 -36 -111 -43q-3 0 -10.5 -1t-10.5 -1h-16q-29 4 -46 9t-37.5 19t-30.5 43t-11 73z" />
<glyph unicode="&#xe3;" d="M188 236q0 -126 84 -193q68 -55 162 -55h27q66 10 151 57q7 -29 24.5 -45t37.5 -16q26 2 42 13.5t15 33.5l-2 657q0 72 -41 129q-29 40 -84.5 64t-126.5 24q-47 -1 -89.5 -14t-69 -30.5t-47.5 -38t-29 -31.5t-11 -17q-11 -22 -4 -45t27 -33q22 -12 44.5 -5.5t33.5 26.5 q10 21 33 35q45 39 112 39q45 -1 74 -9t41 -22.5t15.5 -25t4.5 -27.5v-146q-2 -4 -2 -24q-18 -7 -71 -15q-112 -15 -155 -28q-188 -58 -196 -248v-10zM217 1128q0 -11 13 -20.5t30 -9.5q24 0 39 18v-2q60 54 86 51q21 -4 49 -14q126 -57 144 -57q28 0 84 59q45 51 45 74 q0 12 -12 21t-29 9q-25 0 -54 -32q-30 -35 -65 -35q-44 0 -107 35h2q-47 18 -82 32q-27 -5 -88 -57q-55 -58 -55 -72zM305 242q3 75 42.5 115t125.5 55q13 2 35 6.5t42.5 6.5t63.5 3v-238q-15 -26 -36 -47q-36 -36 -111 -43q-3 0 -10.5 -1t-10.5 -1h-16q-29 4 -46 9 t-37.5 19t-30.5 43t-11 73z" />
<glyph unicode="&#xe4;" d="M188 236q0 -126 84 -193q68 -55 162 -55h27q66 10 151 57q7 -29 24.5 -45t37.5 -16q26 2 42 13.5t15 33.5l-2 657q0 72 -41 129q-29 40 -84.5 64t-126.5 24q-47 -1 -89.5 -14t-69 -30.5t-47.5 -38t-29 -31.5t-11 -17q-11 -22 -4 -45t27 -33q22 -12 44.5 -5.5t33.5 26.5 q10 21 33 35q45 39 112 39q45 -1 74 -9t41 -22.5t15.5 -25t4.5 -27.5v-146q-2 -4 -2 -24q-18 -7 -71 -15q-112 -15 -155 -28q-188 -58 -196 -248v-10zM229 1139q0 -38 26 -65t64 -27q36 0 62.5 27t26.5 65t-26.5 65t-62.5 27q-38 0 -64 -27t-26 -65zM305 242q3 75 42.5 115 t125.5 55q13 2 35 6.5t42.5 6.5t63.5 3v-238q-15 -26 -36 -47q-36 -36 -111 -43q-3 0 -10.5 -1t-10.5 -1h-16q-29 4 -46 9t-37.5 19t-30.5 43t-11 73zM584 1139q0 -38 27 -65t65 -27q37 0 63.5 27t26.5 65t-26.5 65t-63.5 27q-38 0 -65 -27t-27 -65z" />
<glyph unicode="&#xe5;" d="M188 236q0 -126 84 -193q68 -55 162 -55h27q66 10 151 57q7 -29 24.5 -45t37.5 -16q26 2 42 13.5t15 33.5l-2 657q0 72 -41 129q-29 40 -84.5 64t-126.5 24q-47 -1 -89.5 -14t-69 -30.5t-47.5 -38t-29 -31.5t-11 -17q-11 -22 -4 -45t27 -33q22 -12 44.5 -5.5t33.5 26.5 q10 21 33 35q45 39 112 39q45 -1 74 -9t41 -22.5t15.5 -25t4.5 -27.5v-146q-2 -4 -2 -24q-18 -7 -71 -15q-112 -15 -155 -28q-188 -58 -196 -248v-10zM305 242q3 75 42.5 115t125.5 55q13 2 35 6.5t42.5 6.5t63.5 3v-238q-15 -26 -36 -47q-36 -36 -111 -43q-3 0 -10.5 -1 t-10.5 -1h-16q-29 4 -46 9t-37.5 19t-30.5 43t-11 73zM379 1145q0 -47 33.5 -82t79.5 -35q47 0 81.5 35t34.5 82q0 46 -34.5 80.5t-81.5 34.5q-46 0 -79.5 -34.5t-33.5 -80.5z" />
<glyph unicode="&#xe6;" d="M39 236q0 -62 20.5 -113t53.5 -82q56 -53 133 -53h22q65 12 133 61q6 -32 20.5 -48.5t31.5 -16.5q37 4 51 71q61 -52 119 -59h24q36 0 67.5 11.5t52 27.5t39.5 38t28 38.5t17.5 33t8.5 17.5q9 23 3.5 46.5t-23.5 35.5q-14 10 -31.5 4t-28.5 -25l-10 -20 q-10 -23 -18 -36.5t-25 -31.5t-42.5 -24t-59.5 0q-67 11 -107 127q-14 47 -22 131v61h338q41 0 47 53q0 2 1 18t1 29q0 125 -37 215q-27 66 -80.5 109.5t-134.5 40.5q-85 -6 -154 -98q-74 108 -192 108q-47 -1 -88 -18t-66 -42t-37 -41t-18 -28q-8 -24 -3 -47t21 -35 q15 -11 35 -3t29 26q0 1 2.5 6.5t8.5 14t13 14.5v-2q41 41 103 41q39 -1 64 -9t35 -23t13 -25t4 -27q0 -11 2 -15v-123q-2 -6 -2 -28q-33 -16 -61 -21q-33 -4 -64 -12t-73 -27.5t-73.5 -47.5t-57.5 -76.5t-33 -110.5v-10zM133 242q1 74 36.5 114.5t109.5 55.5l-3 -2 q4 1 13.5 3t13.5 3q3 1 13 4.5t28 5.5t57 2q0 -41 2 -53v-182q-10 -27 -24 -41q-4 -4 -4 -7q-31 -38 -101 -45q-3 0 -9 -1t-9 -1h-14q-27 6 -40.5 11t-32.5 19.5t-27.5 42.5t-8.5 71zM502 526q0 1 1 17t1 18q10 78 16 101q38 120 125 126q34 -1 56.5 -12.5t32 -24.5 t26.5 -44l-4 2q1 -1 3 -4.5t3 -4.5q28 -92 31 -174h-291z" />
<glyph unicode="&#xe7;" d="M168 461q0 -178 49 -293q21 -57 73 -104t124 -68q-19 -117 -80 -242v2l-6 -16q-11 -18 -6.5 -40t22.5 -34h-2q24 -8 31 -8q32 0 49 33l-2 -2q71 128 98 307q57 11 102.5 40t69 60t39 65t19.5 52t4 23q3 24 -11.5 42t-38.5 21q-23 3 -40.5 -11t-22.5 -38q0 -9 -4 -17l2 5 q-3 -18 -10.5 -35.5t-25 -43.5t-52 -41t-80.5 -14q-57 1 -87.5 25.5t-59.5 85.5q-39 91 -39 246q0 129 34 209q30 61 61 87t91 27q50 0 77 -14t48 -41v2q15 -18 31 -67q3 -17 22.5 -26.5t42.5 -4.5q23 6 35 25t8 42q0 5 -6 24t-24.5 49.5t-46 58t-77 48t-110.5 21.5h-10 q-91 -4 -154.5 -57.5t-93.5 -128.5q-43 -115 -43 -254z" />
<glyph unicode="&#xe8;" d="M176 444q0 -137 35 -241q24 -79 81 -139.5t146 -67.5h27q49 0 93 17.5t70.5 39t49.5 50.5t30.5 43t12.5 26q9 19 1.5 39.5t-28.5 30.5q-19 12 -40.5 7t-30.5 -22l-17 -24l2 2q-17 -29 -33 -48t-52 -35.5t-81 -10.5q-41 6 -69.5 35.5t-53.5 91.5q-24 79 -28 192h393 q20 0 36.5 14.5t20.5 38.5q0 2 1 18t1 29q0 127 -43 215q-30 67 -94.5 110.5t-159.5 39.5q-91 -4 -151 -62t-84 -133q-30 -86 -35 -256zM295 532q9 87 27 132v-2q21 61 54 92t85 34q33 -1 54 -5.5t36.5 -18.5t21.5 -22.5t21 -34.5q30 -64 35 -181zM326.5 1264.5 q4.5 -24.5 25.5 -37.5l223 -160q18 -10 42 -6.5t36 20.5q13 19 9.5 42.5t-21.5 37.5q-176 124 -225 158q-19 17 -42 13.5t-38 -25.5q-14 -18 -9.5 -42.5z" />
<glyph unicode="&#xe9;" d="M176 444q0 -137 35 -241q24 -79 81 -139.5t146 -67.5h27q49 0 93 17.5t70.5 39t49.5 50.5t30.5 43t12.5 26q9 19 1.5 39.5t-28.5 30.5q-19 12 -40.5 7t-30.5 -22l-17 -24l2 2q-17 -29 -33 -48t-52 -35.5t-81 -10.5q-41 6 -69.5 35.5t-53.5 91.5q-24 79 -28 192h393 q22 0 38 15t19 40q0 2 1 17t1 28q0 127 -43 215q-30 67 -94.5 110.5t-159.5 39.5q-91 -4 -151 -62t-84 -133q-30 -86 -35 -256zM295 532q9 87 27 132v-2q21 61 54 92t85 34q33 -1 54 -5.5t36.5 -18.5t21.5 -22.5t21 -34.5q30 -64 35 -181zM330 1144q-6 -24 6 -46 q13 -18 36.5 -23.5t41.5 2.5q39 24 118.5 70t118.5 70q20 11 26.5 33t-5.5 42v2q-10 17 -34 22.5t-44 -3.5l-238 -137v2q-20 -10 -26 -34z" />
<glyph unicode="&#xea;" d="M197 444q0 -140 34 -241q24 -79 81.5 -139.5t146.5 -67.5h26q49 0 93 17.5t70.5 39t49.5 50.5t30.5 43t12.5 26q10 18 2.5 39t-28.5 31q-19 12 -41 7t-31 -22l-16 -24l2 2q-17 -29 -33 -48t-52 -35.5t-81 -10.5q-41 6 -69.5 35.5t-53.5 91.5q-25 82 -29 192h394 q20 0 36.5 14.5t20.5 38.5q0 2 1 18t1 29q0 127 -43 215q-30 67 -94.5 110.5t-159.5 39.5q-91 -4 -151.5 -62t-84.5 -133q-14 -41 -22 -93.5t-9 -79t-3 -83.5zM233 1139.5q-7 -18.5 3 -37.5q12 -25 33.5 -34t41.5 3l191 123l178 -137q15 -8 38 -5t32 17q13 20 9.5 44 t-20.5 38q-93 73 -207 158q-40 21 -63 -2l-211 -136q-18 -13 -25 -31.5zM315 532q9 87 27 132v-2q21 61 54 92t85 34q33 -1 54 -5.5t36.5 -18.5t21.5 -22.5t21 -34.5q30 -64 35 -181z" />
<glyph unicode="&#xeb;" d="M176 444q0 -137 35 -241q24 -79 81 -139.5t146 -67.5h27q164 0 254 172q1 3 2 4q9 19 1.5 39.5t-28.5 30.5q-19 12 -40.5 7t-30.5 -22l-17 -24l2 2q-17 -29 -33 -48t-52 -35.5t-81 -10.5q-42 6 -71 36t-52 91q-24 79 -28 192h393q21 0 37.5 15.5t19.5 39.5q0 2 1 17t1 28 q0 127 -43 215q-30 67 -94.5 110.5t-159.5 39.5q-91 -4 -151 -62t-84 -133q-30 -86 -35 -256zM207 1139q0 -38 27 -65t65 -27q36 0 62 27t26 65t-26 65t-62 27q-38 0 -65 -27t-27 -65zM295 532q9 87 27 132v-2q21 61 54 92t85 34q33 -1 54 -5.5t36.5 -18.5t21.5 -22.5 t21 -34.5q30 -64 35 -181zM563 1139q0 -38 27 -65t65 -27q37 0 63.5 27t26.5 65t-26.5 65t-63.5 27q-38 0 -65 -27t-27 -65z" />
<glyph unicode="&#xec;" d="M211 49q0 -24 16 -36.5t41 -12.5h385q25 0 40.5 12.5t15.5 36.5q0 21 -16 35t-40 14h-129v731q0 23 -16 39q-17 17 -41 17h-160q-25 0 -42 -16t-17 -38q0 -24 16.5 -37.5t42.5 -13.5h107v-682h-146q-24 0 -40.5 -14t-16.5 -35zM228 1264q4 -24 24 -37l223 -160 q20 -10 44 -6.5t34 20.5q14 19 10 42.5t-22 37.5q-200 142 -224 158q-19 17 -42 13.5t-37 -25.5q-14 -19 -10 -43z" />
<glyph unicode="&#xed;" d="M211 49q0 -24 16 -36.5t41 -12.5h385q25 0 40.5 12.5t15.5 36.5q0 21 -16 35t-40 14h-129v731q0 23 -16 39q-17 17 -41 17h-160q-25 0 -42 -16t-17 -38q0 -24 16.5 -37.5t42.5 -13.5h107v-682h-146q-24 0 -40.5 -14t-16.5 -35zM330 1144q-6 -24 6 -46q13 -18 36.5 -23.5 t41.5 2.5q39 24 118.5 70t118.5 70q20 11 26.5 33t-5.5 42v2q-10 17 -34 22.5t-44 -3.5l-238 -137v2q-20 -10 -26 -34z" />
<glyph unicode="&#xee;" d="M180.5 1140q-7.5 -19 1.5 -38q14 -25 35.5 -34t40.5 3l193 123l178 -137q14 -8 36.5 -5t32.5 17q14 20 10.5 44.5t-22.5 37.5q-39 30 -112 86t-93 72q-40 21 -63 -2l-211 -136q-19 -12 -26.5 -31zM211 49q0 -24 16.5 -36.5t42.5 -12.5h383q25 0 41.5 12.5t16.5 36.5 q0 21 -17 35t-41 14h-129v731q0 23 -16 39q-17 17 -41 17h-160q-23 0 -41 -16t-18 -38q0 -24 17 -37.5t42 -13.5h109v-682h-146q-25 0 -42 -14t-17 -35z" />
<glyph unicode="&#xef;" d="M182 1139q0 -38 27 -65t65 -27q36 0 62 27t26 65t-26 65t-62 27q-38 0 -65 -27t-27 -65zM211 49q0 -24 16 -36.5t41 -12.5h385q25 0 41.5 12.5t16.5 36.5q0 21 -17 35t-41 14h-129v731q0 23 -16 39q-17 17 -41 17h-160q-23 0 -41 -16t-18 -38q0 -24 17 -37.5t42 -13.5 h107v-682h-146q-24 0 -40.5 -14t-16.5 -35zM539 1139q0 -38 26.5 -65t63.5 -27q38 0 65 27t27 65t-27 65t-65 27q-37 0 -63.5 -27t-26.5 -65z" />
<glyph unicode="&#xf1;" d="M195 53q0 -26 17 -42.5t42 -16.5t42 16.5t17 42.5l2 647q20 32 56.5 58t68.5 30q42 6 74 -3.5t50.5 -31t27.5 -37t14 -32.5v-629q0 -25 17 -42t43 -17q24 0 41.5 17.5t17.5 41.5v621q0 66 -33 125q-24 43 -74 72t-114 28h-19q-77 -11 -163 -63q-25 51 -64 51 q-25 0 -43 -17.5t-18 -40.5zM217 1128q0 -11 13 -20.5t30 -9.5q24 0 39 18v-2q60 54 86 51q21 -4 49 -14q126 -57 144 -57q28 0 84 59q45 51 45 74q0 12 -12 21t-29 9q-25 0 -54 -32q-30 -35 -65 -35q-44 0 -107 35h2q-78 32 -84 32q-28 -8 -86 -57q-55 -58 -55 -72z" />
<glyph unicode="&#xf2;" d="M158 422q0 -141 51 -258q30 -73 94 -124.5t156 -51.5q99 1 166.5 55.5t95.5 130.5q41 102 41 258v17q0 159 -39 264q-29 76 -95 131t-159 51h-8q-100 0 -169 -58t-97 -139q-32 -87 -37 -247v-29zM276 422v8q0 134 33 232q27 59 57.5 83.5t96.5 30.5q31 0 53.5 -6 t49.5 -31t44 -71q37 -81 37 -219v-15q0 -130 -39 -213q-25 -58 -55.5 -83.5t-91.5 -31.5q-55 3 -85.5 27.5t-60.5 81.5q-20 44 -30.5 103.5t-8.5 103.5zM326.5 1264.5q4.5 -24.5 25.5 -37.5l223 -160q18 -10 42 -6.5t36 20.5q13 19 9.5 42.5t-21.5 37.5q-176 124 -225 158 q-19 17 -42 13.5t-38 -25.5q-14 -18 -9.5 -42.5z" />
<glyph unicode="&#xf3;" d="M158 422q0 -141 51 -258q30 -73 94 -124.5t156 -51.5q99 1 166.5 55.5t95.5 130.5q41 102 41 258v17q0 159 -39 264q-29 76 -95 131t-159 51h-8q-100 0 -169 -58t-97 -139q-32 -87 -37 -247v-29zM276 422v8q0 134 33 232q27 59 57.5 83.5t96.5 30.5q31 0 53.5 -6 t49.5 -31t44 -71q37 -81 37 -219v-15q0 -130 -39 -213q-25 -58 -55.5 -83.5t-91.5 -31.5q-55 3 -85.5 27.5t-60.5 81.5q-20 44 -30.5 103.5t-8.5 103.5zM330 1144q-6 -24 6 -46q13 -18 36.5 -23.5t41.5 2.5q39 24 118.5 70t118.5 70q20 11 26.5 33t-5.5 42v2 q-10 17 -34 22.5t-44 -3.5l-238 -137v2q-20 -10 -26 -34z" />
<glyph unicode="&#xf4;" d="M158 422q0 -141 51 -258q30 -73 94 -124.5t156 -51.5q99 1 166.5 55.5t95.5 130.5q41 102 41 258v17q0 159 -39 264q-29 76 -95 131t-159 51h-8q-100 0 -169 -58t-97 -139q-32 -87 -37 -247v-29zM199 1140q-7 -19 2 -38q14 -25 35 -34t40 3l193 123l178 -137q14 -8 37 -5 t33 17q14 20 10.5 44.5t-22.5 37.5q-39 30 -112 86t-93 72q-41 21 -64 -2l-211 -136q-19 -12 -26 -31zM276 422v8q0 134 33 232q27 59 57.5 83.5t96.5 30.5q31 0 53.5 -6t49.5 -31t44 -71q37 -81 37 -219v-15q0 -130 -39 -213q-25 -58 -55.5 -83.5t-91.5 -31.5 q-55 3 -85.5 27.5t-60.5 81.5q-20 44 -30.5 103.5t-8.5 103.5z" />
<glyph unicode="&#xf5;" d="M158 422q0 -141 51 -258q30 -73 94 -124.5t156 -51.5q99 1 166.5 55.5t95.5 130.5q41 102 41 258v17q0 159 -39 264q-29 76 -95 131t-159 51h-8q-100 0 -169 -58t-97 -139q-32 -87 -37 -247v-29zM217 1071q0 -11 13 -20t30 -9q22 0 39 17v-2q60 54 86 51q21 -4 49 -14 q129 -58 144 -58q27 0 84 60q45 51 45 73q0 13 -12 22t-29 9q-28 0 -54 -33q-30 -34 -65 -34q-46 0 -107 34h2q-74 31 -82 33q-23 -2 -88 -57q-55 -58 -55 -72zM276 422v8q0 134 33 232q27 59 57.5 83.5t96.5 30.5q31 0 53.5 -6t49.5 -31t44 -71q37 -81 37 -219v-15 q0 -130 -39 -213q-25 -58 -55.5 -83.5t-91.5 -31.5q-55 3 -85.5 27.5t-60.5 81.5q-20 44 -30.5 103.5t-8.5 103.5z" />
<glyph unicode="&#xf6;" d="M158 422q0 -141 51 -258q30 -73 94 -124.5t156 -51.5q99 1 166.5 55.5t95.5 130.5q41 102 41 258v17q0 159 -39 264q-29 76 -95 131t-159 51h-8q-100 0 -169 -58t-97 -139q-32 -87 -37 -247v-29zM195 1120q0 -38 27 -66t65 -28q35 0 61.5 28t26.5 66q0 37 -26.5 64.5 t-61.5 27.5q-38 0 -65 -27.5t-27 -64.5zM276 422v8q0 134 33 232q27 59 57.5 83.5t96.5 30.5q31 0 53.5 -6t49.5 -31t44 -71q37 -81 37 -219v-15q0 -130 -39 -213q-25 -58 -55.5 -83.5t-91.5 -31.5q-55 3 -85.5 27.5t-60.5 81.5q-20 44 -30.5 103.5t-8.5 103.5zM551 1120 q0 -38 27 -66t65 -28q37 0 63.5 28t26.5 66q0 37 -26.5 64.5t-63.5 27.5q-38 0 -65 -27.5t-27 -64.5z" />
<glyph unicode="&#xf7;" d="M141 694q0 -24 18 -40.5t42 -16.5h544q24 0 41 16.5t17 40.5q0 23 -17.5 39.5t-40.5 16.5h-544q-24 0 -42 -16.5t-18 -39.5zM371 383q0 -39 31.5 -71.5t76.5 -32.5t76 34q27 44 27 76q0 41 -29 70q-27 37 -80 37q-49 0 -78 -37q-24 -31 -24 -76zM371 1012q0 -39 24 -78 q31 -39 78 -39t78 39q31 31 31 67q0 48 -25 76q-30 41 -76 41q-50 0 -80 -31t-30 -75z" />
<glyph unicode="&#xf8;" d="M90 53q-2 -24 12 -37q9 -12 30 -7t36 22l68 80q99 -123 223 -123q99 1 166.5 55.5t95.5 130.5q41 102 41 258v17q0 130 -31 237v4l47 49q16 21 49 60q16 16 19 41l-2 20q-2 8 -7.5 13.5t-11.5 5.5q-11 7 -30 0q-17 -3 -29 -21q-4 -6 -16 -18q-6 -9 -30 -37.5t-30 -36.5 q-31 60 -91.5 96t-129.5 33h-8q-100 0 -169 -58t-97 -139q-32 -87 -37 -247v-29q0 -123 35 -227l-84 -101q-17 -17 -19 -41zM276 424v6q0 141 33 232q28 61 58.5 87.5t95.5 32.5q104 8 145 -110q-65 -73 -166 -193q-79 -90 -159 -170q-8 104 -7 115zM317 205l56 63 q12 12 20.5 22t9.5 11q88 102 146 174q43 48 92 109l4 -70q1 -9 1 -20t-0.5 -25t-0.5 -20v-15q0 -129 -37 -213q-25 -58 -55 -83.5t-90 -31.5q-86 -5 -146 99z" />
<glyph unicode="&#xf9;" d="M193 836l6 -603q0 -9 1.5 -24.5t13 -54t31.5 -69.5t63.5 -59.5t103.5 -35.5h2q8 -2 18 -2q44 1 74.5 8t44.5 14.5t44 27.5q7 5 11 7q27 -45 62 -45q24 0 41.5 17.5t17.5 43.5l-2 777q-2 25 -19.5 43t-41.5 18q-25 0 -42.5 -18t-17.5 -43l4 -668l-16 -14 q-16 -14 -30.5 -24.5t-44.5 -21.5t-64 -14h-13q-56 6 -92.5 49t-36.5 103v588q0 25 -17 41t-42 16t-42 -17t-17 -40zM326.5 1264.5q4.5 -24.5 25.5 -37.5l223 -160q18 -10 42 -6.5t36 20.5q13 19 9.5 42.5t-21.5 37.5q-176 124 -225 158q-19 17 -42 13.5t-38 -25.5 q-14 -18 -9.5 -42.5z" />
<glyph unicode="&#xfa;" d="M193 836l6 -603q0 -9 1.5 -24.5t13 -54t31.5 -69.5t63.5 -59.5t103.5 -35.5h2q8 -2 18 -2q44 1 74.5 8t44.5 14.5t44 27.5q7 5 11 7q27 -45 62 -45q24 0 41.5 17.5t17.5 43.5l-2 777q-2 25 -19.5 43t-41.5 18q-25 0 -42.5 -18t-17.5 -43l4 -668l-16 -14 q-16 -14 -30.5 -24.5t-44.5 -21.5t-64 -14h-13q-56 6 -92.5 49t-36.5 103v588q0 25 -17 41t-42 16t-42 -17t-17 -40zM330 1144q-6 -24 6 -46q13 -18 36.5 -23.5t41.5 2.5q39 24 118.5 70t118.5 70q20 11 26.5 33t-5.5 42v2q-10 17 -34 22.5t-44 -3.5l-238 -137v2 q-20 -10 -26 -34z" />
<glyph unicode="&#xfb;" d="M186.5 1155q-7.5 -19 1.5 -37q13 -26 35 -35.5t41 2.5l193 123l176 -137q17 -8 38.5 -5t30.5 17q15 20 12 44t-22 38q-93 73 -207 158q-15 11 -33 10.5t-28 -12.5l-211 -133q-19 -14 -26.5 -33zM193 836l6 -603q0 -9 1.5 -24.5t13 -54t31.5 -69.5t63.5 -59.5t103.5 -35.5 h2q8 -2 18 -2q44 1 74.5 8t44.5 14.5t44 27.5q7 5 11 7q27 -45 62 -45q24 0 41.5 17.5t17.5 43.5l-2 777q-2 25 -19.5 43t-41.5 18q-25 0 -42.5 -18t-17.5 -43l4 -668l-16 -14q-16 -14 -30.5 -24.5t-44.5 -21.5t-64 -14h-13q-56 6 -92.5 49t-36.5 103v588q0 25 -17 41 t-42 16t-42 -17t-17 -40z" />
<glyph unicode="&#xfc;" d="M180 1149q0 -38 26.5 -65t63.5 -27t63.5 27t26.5 65t-26.5 65t-63.5 27t-63.5 -27t-26.5 -65zM193 836l6 -603q0 -9 1.5 -24.5t13 -54t31.5 -69.5t63.5 -59.5t103.5 -35.5h2q8 -2 18 -2q44 1 74.5 8t44.5 14.5t44 27.5q7 5 11 7q27 -45 62 -45q24 0 41.5 17.5t17.5 43.5 l-2 777q-2 25 -19.5 43t-41.5 18q-25 0 -42.5 -18t-17.5 -43l4 -668l-16 -14q-16 -14 -30.5 -24.5t-44.5 -21.5t-64 -14h-13q-56 6 -92.5 49t-36.5 103v588q0 25 -17 41t-42 16t-42 -17t-17 -40zM537 1149q0 -38 26.5 -65t63.5 -27q38 0 65 27t27 65t-27 65t-65 27 q-37 0 -63.5 -27t-26.5 -65z" />
<glyph unicode="&#x152;" d="M106 578q0 -293 79 -438.5t245 -157.5h-2q2 -2 10 -2l393 -5q20 0 35 16t17 38q0 25 -16 41t-38 18q-38 0 -126 1t-125 1v528h198q22 0 37.5 16t15.5 38q0 23 -15 39.5t-36 19.5h-200v459l249 -2q22 0 37 15.5t15 37.5q0 26 -15 44t-35 18h-356q133 3 -13 36q-4 1 -7 2 q2 -1 10 -4t10 -4l-10 -30h10h-10l-2 -9l-31 6q-2 0 -8 -2q-88 -4 -152.5 -62.5t-95.5 -148.5q-34 -82 -51 -216t-17 -275v-18zM225 582v20q0 125 15 249t41 191q34 75 66 105t81 33l43 -2v-1078l-47 4q-31 6 -52 14.5t-51 38.5t-48 77.5t-32 136.5t-16 211z" />
<glyph unicode="&#x153;" d="M35 422q0 -146 43 -264q23 -72 75.5 -124t125.5 -52q117 3 196 151q74 -147 172 -158h23q40 0 75 17.5t57 40t40 51.5t24.5 44t10.5 26q8 19 1 40.5t-26 34.5q-13 7 -28.5 1.5t-24.5 -23.5l-11 -21q-14 -26 -21.5 -38t-25 -30.5t-40 -24.5t-52.5 -1q-70 12 -108 131 q-14 51 -17 115q0 5 -1 17.5t-1 17.5v10q0 2 1 17.5t1 17.5h324q18 0 29.5 14.5t13.5 38.5q0 2 1 18t1 31q0 134 -33 217q-26 67 -78.5 111t-128.5 43q-91 -8 -174 -141q-81 158 -190 155h-10q-77 0 -132.5 -60.5t-76.5 -142.5q-30 -86 -35 -249v-31zM141 422v8 q0 137 23 229l8 19q17 54 36.5 75t72.5 27l131 -110q24 -65 24 -209v-72q-5 -121 -26 -170v2q-21 -61 -49 -88.5t-80 -30.5q-22 1 -37.5 6.5t-27.5 20.5t-18.5 27.5t-19.5 40.5q-2 2 -6 18q-38 113 -31 207zM524 516q6 33 6 64q4 51 9 71q37 126 127 129q45 -1 66.5 -20 t35.5 -55l8 -17q24 -51 29 -172h-281z" />
<glyph unicode="&#x2dc;" d="M47 600q9 -12 22.5 -24.5t24.5 -26.5q51 102 84 149q42 54 101 54t194 -78q139 -74 178 -74q144 0 234 238l-47 57q-85 -201 -185 -201q-27 0 -174 78q-148 74 -205 74q-82 0 -149 -80q-30 -42 -78 -166z" />
<glyph unicode="&#x2000;" horiz-adv-x="857" />
<glyph unicode="&#x2001;" horiz-adv-x="1714" />
<glyph unicode="&#x2002;" horiz-adv-x="857" />
<glyph unicode="&#x2003;" horiz-adv-x="1714" />
<glyph unicode="&#x2004;" horiz-adv-x="571" />
<glyph unicode="&#x2005;" horiz-adv-x="428" />
<glyph unicode="&#x2006;" horiz-adv-x="285" />
<glyph unicode="&#x2007;" horiz-adv-x="285" />
<glyph unicode="&#x2008;" horiz-adv-x="214" />
<glyph unicode="&#x2009;" horiz-adv-x="342" />
<glyph unicode="&#x200a;" horiz-adv-x="95" />
<glyph unicode="&#x2010;" d="M141 555q0 -18 12 -35.5t27 -17.5h561q14 0 25.5 17.5t11.5 35.5q0 15 -11.5 31t-25.5 16h-561q-14 0 -26.5 -16t-12.5 -31z" />
<glyph unicode="&#x2011;" d="M141 555q0 -18 12 -35.5t27 -17.5h561q14 0 25.5 17.5t11.5 35.5q0 15 -11.5 31t-25.5 16h-561q-14 0 -26.5 -16t-12.5 -31z" />
<glyph unicode="&#x2012;" d="M141 555q0 -18 12 -35.5t27 -17.5h561q14 0 25.5 17.5t11.5 35.5q0 15 -11.5 31t-25.5 16h-561q-14 0 -26.5 -16t-12.5 -31z" />
<glyph unicode="&#x2013;" d="M129 545q0 -24 17.5 -41t41.5 -17h545q24 0 41 17t17 41q0 23 -17 39t-41 16h-545q-24 0 -41.5 -16t-17.5 -39z" />
<glyph unicode="&#x2014;" d="M129 545q0 -24 17.5 -41t41.5 -17h545q24 0 41 17t17 41q0 23 -17 39t-41 16h-545q-24 0 -41.5 -16t-17.5 -39z" />
<glyph unicode="&#x2018;" d="M387 954q0 -23 17 -39t40 -16q24 0 41 16t17 39v275q0 25 -17 42t-41 17q-23 0 -40 -17t-17 -42v-275z" />
<glyph unicode="&#x2019;" d="M387 954q0 -23 17 -39t40 -16q24 0 41 16t17 39v275q0 25 -17 42t-41 17q-23 0 -40 -17t-17 -42v-275z" />
<glyph unicode="&#x201a;" d="M311 145q0 -60 42.5 -102.5t101.5 -42.5h47q-28 -153 -82 -246v2l-6 -16q-11 -18 -6.5 -40t24.5 -34h-2q20 -8 29 -8q31 0 51 33l-2 -2q100 183 102 377q0 51 -8 92l2 -2q-1 3 -5 17t-5 17q-9 42 -49 71.5t-90 29.5q-59 0 -101.5 -43t-42.5 -103z" />
<glyph unicode="&#x201c;" d="M264 954q0 -23 17 -39t41 -16q23 0 40 16t17 39v275q0 25 -17 42t-40 17q-24 0 -41 -17t-17 -42v-275zM557 954q0 -23 17 -39t40 -16q24 0 41 16t17 39v275q0 25 -17 42t-41 17q-23 0 -40 -17t-17 -42v-275z" />
<glyph unicode="&#x201d;" d="M264 954q0 -23 17 -39t41 -16q23 0 40 16t17 39v275q0 25 -17 42t-40 17q-24 0 -41 -17t-17 -42v-275zM557 954q0 -23 17 -39t40 -16q24 0 41 16t17 39v275q0 25 -17 42t-41 17q-23 0 -40 -17t-17 -42v-275z" />
<glyph unicode="&#x201e;" d="M264 954q0 -23 17 -39t41 -16q23 0 40 16t17 39v275q0 25 -17 42t-40 17q-24 0 -41 -17t-17 -42v-275zM557 954q0 -23 17 -39t40 -16q24 0 41 16t17 39v275q0 25 -17 42t-41 17q-23 0 -40 -17t-17 -42v-275z" />
<glyph unicode="&#x202f;" horiz-adv-x="342" />
<glyph unicode="&#x205f;" horiz-adv-x="428" />
<glyph unicode="&#x20ac;" d="M55 526q0 -23 18 -39t42 -16h125q28 -262 112 -387q70 -97 201 -104h25q61 5 112 32.5t80.5 62.5t50.5 72t29 59t8 27q6 26 -4 47.5t-29 24.5q-26 9 -50 -4.5t-30 -38.5q-2 -8 -6.5 -20.5t-21 -44t-36 -55t-52.5 -41.5t-70 -15q-4 2 -12 2q-59 14 -103 68q-60 81 -90 315 h305q24 0 41 16t17 39q0 24 -17 41t-41 17h-315v37q-2 20 -2 86h317q24 0 41 16.5t17 40.5q0 23 -17 39t-41 16h-311q10 95 27.5 163t35 104.5t46 60t47.5 30.5t53 15h25q48 0 102 -39q27 -27 37 -47l-2 2l8 -10q10 -23 30 -30.5t42 3.5q20 10 27.5 34.5t-1.5 43.5 q-3 7 -10.5 20t-28 36.5t-46 43.5t-67.5 35t-89 16q-23 0 -39 -2q-53 -4 -100.5 -31.5t-90 -81.5t-73 -147.5t-43.5 -218.5h-123q-24 0 -42 -16t-18 -39q0 -24 18 -40.5t42 -16.5h116q0 -63 2 -86v-37h-118q-24 0 -42 -17t-18 -41z" />
<glyph unicode="&#x25fc;" horiz-adv-x="890" d="M0 0v891h891v-891h-891z" />
</font>
</defs>
</svg>
